<?xml version="1.0" encoding="utf-8"?>
<!-- Generator: Adobe Illustrator 24.2.1, SVG Export Plug-In . SVG Version: 6.00 Build 0)  -->
<svg version="1.1" id="Capa_1" xmlns="http://www.w3.org/2000/svg" xmlns:xlink="http://www.w3.org/1999/xlink" x="0px" y="0px"
	 viewBox="0 0 50 50" style="enable-background:new 0 0 50 50;" xml:space="preserve">
<style type="text/css">
	.st0{opacity:0.6;}
	.st1{clip-path:url(#SVGID_2_);fill:none;stroke:#23334B;stroke-width:0.75;stroke-miterlimit:10;}
	.st2{clip-path:url(#SVGID_4_);fill:none;stroke:#23334B;stroke-width:0.75;stroke-miterlimit:10;}
	.st3{clip-path:url(#SVGID_6_);fill:none;stroke:#23334B;stroke-width:0.75;stroke-miterlimit:10;}
	.st4{clip-path:url(#SVGID_8_);fill:none;stroke:#23334B;stroke-width:0.75;stroke-miterlimit:10;}
	.st5{clip-path:url(#SVGID_10_);fill:#23334B;}
	.st6{clip-path:url(#SVGID_12_);fill:none;stroke:#23334B;stroke-width:0.75;stroke-miterlimit:10;}
	.st7{clip-path:url(#SVGID_14_);fill:#23334B;}
	.st8{clip-path:url(#SVGID_16_);fill:none;stroke:#23334B;stroke-width:0.75;stroke-miterlimit:10;}
	.st9{clip-path:url(#SVGID_18_);fill:#23334B;}
	.st10{clip-path:url(#SVGID_20_);fill:none;stroke:#23334B;stroke-width:0.75;stroke-miterlimit:10;}
	.st11{clip-path:url(#SVGID_22_);fill:#23334B;}
	.st12{clip-path:url(#SVGID_24_);fill:none;stroke:#23334B;stroke-width:0.75;stroke-miterlimit:10;}
	.st13{clip-path:url(#SVGID_26_);fill:#23334B;}
	.st14{clip-path:url(#SVGID_26_);fill:none;stroke:#23334B;stroke-width:0.25;stroke-miterlimit:10;}
	.st15{clip-path:url(#SVGID_28_);fill:none;stroke:#23334B;stroke-width:0.75;stroke-miterlimit:10;}
	.st16{clip-path:url(#SVGID_30_);fill:#23334B;}
	.st17{opacity:0.5;}
	.st18{fill:#23334B;}
	.st19{clip-path:url(#SVGID_32_);fill:none;stroke:#23334B;stroke-width:0.75;stroke-miterlimit:10;}
	.st20{opacity:0.6;fill:#23334B;}
	.st21{opacity:0.6;fill:none;stroke:#23334B;stroke-width:0.75;stroke-miterlimit:10;}
	.st22{opacity:0.9;}
	.st23{fill:#FFFFFF;}
	.st24{fill:#AC92EC;}
	.st25{fill:#00C6B3;}
	.st26{fill:#EAC6BB;}
	.st27{fill:#656D78;}
	.st28{fill:#ED5565;}
	.st29{opacity:0.9;fill:#FFFFFF;}
	.st30{fill:none;stroke:#23334B;stroke-width:0.75;stroke-miterlimit:10;}
	.st31{fill:none;stroke:#23334B;stroke-width:0.5;stroke-miterlimit:10;}
	.st32{opacity:0.9;fill:none;stroke:#23334B;stroke-width:2;stroke-miterlimit:10;}
</style>
<g>
	<path class="st29" d="M14.028,43.601H3.814c-0.032,0-0.058-0.026-0.058-0.058V29.057c0-0.032,0.026-0.058,0.058-0.058h10.213
		c0.032,0,0.058,0.026,0.058,0.058v14.486C14.086,43.575,14.06,43.601,14.028,43.601z"/>
	<g class="st22">
		<g>
			<g>
				<g>
					<g>
						<path class="st18" d="M46.387,8.466v31.986c0,0.762-0.625,1.383-1.387,1.383h-1.95v1.671c0,0.762-0.621,1.383-1.383,1.383
							H18.338c-0.767,0-1.387-0.621-1.387-1.383V11.52c0-0.762,0.621-1.383,1.387-1.383h1.95V8.466c0-0.762,0.621-1.383,1.383-1.383
							H45C45.762,7.083,46.387,7.704,46.387,8.466z M45.1,40.452V8.466c0-0.054-0.046-0.096-0.1-0.096H21.671
							c-0.054,0-0.096,0.042-0.096,0.096v1.671h20.092c0.762,0,1.383,0.621,1.383,1.383v21.721c0,0.358-0.287,0.646-0.646,0.646
							c-0.354,0-0.642-0.287-0.642-0.646V11.52c0-0.054-0.042-0.096-0.096-0.096H18.338c-0.054,0-0.1,0.042-0.1,0.096v31.986
							c0,0.05,0.046,0.096,0.1,0.096h23.329c0.05,0,0.096-0.046,0.096-0.096v-7.257c0-0.358,0.287-0.646,0.642-0.646
							c0.358,0,0.646,0.287,0.646,0.646v4.299H45C45.054,40.548,45.1,40.502,45.1,40.452z"/>
						<path class="st23" d="M45.1,8.466v31.986c0,0.05-0.046,0.096-0.1,0.096h-1.95v-4.299c0-0.358-0.287-0.646-0.646-0.646
							c-0.354,0-0.642,0.287-0.642,0.646v7.257c0,0.05-0.046,0.096-0.096,0.096H18.338c-0.054,0-0.1-0.046-0.1-0.096V11.52
							c0-0.054,0.046-0.096,0.1-0.096h23.329c0.054,0,0.096,0.042,0.096,0.096v21.721c0,0.358,0.287,0.646,0.642,0.646
							c0.358,0,0.646-0.287,0.646-0.646V11.52c0-0.762-0.621-1.383-1.383-1.383H21.575V8.466c0-0.054,0.042-0.096,0.096-0.096H45
							C45.054,8.37,45.1,8.412,45.1,8.466z M39.884,25.163c0-0.354-0.287-0.642-0.642-0.642H30.19c-0.354,0-0.642,0.287-0.642,0.642
							c0,0.354,0.287,0.642,0.642,0.642h9.052C39.597,25.805,39.884,25.517,39.884,25.163z M39.884,27.825
							c0-0.354-0.287-0.642-0.642-0.642H26.17c-0.354,0-0.642,0.287-0.642,0.642c0,0.354,0.287,0.642,0.642,0.642h13.073
							C39.597,28.467,39.884,28.179,39.884,27.825z M39.884,30.487c0-0.354-0.287-0.642-0.642-0.642H26.17
							c-0.354,0-0.642,0.287-0.642,0.642c0,0.354,0.287,0.642,0.642,0.642h13.073C39.597,31.129,39.884,30.841,39.884,30.487z
							 M39.884,33.149c0-0.354-0.287-0.642-0.642-0.642H26.17c-0.354,0-0.642,0.287-0.642,0.642c0,0.354,0.287,0.642,0.642,0.642
							h13.073C39.597,33.791,39.884,33.503,39.884,33.149z M31.573,35.811c0-0.354-0.287-0.642-0.642-0.642H26.17
							c-0.354,0-0.642,0.287-0.642,0.642c0,0.354,0.287,0.642,0.642,0.642h4.762C31.286,36.453,31.573,36.165,31.573,35.811z
							 M26.079,16.381c0-1.762-1.433-3.195-3.195-3.195s-3.195,1.433-3.195,3.195s1.433,3.195,3.195,3.195
							S26.079,18.144,26.079,16.381z M23.529,38.848V22.126c0-0.354-0.292-0.646-0.646-0.646s-0.642,0.292-0.642,0.646v16.722
							c0,0.354,0.287,0.646,0.642,0.646S23.529,39.202,23.529,38.848z"/>
						<path class="st18" d="M39.243,24.522c0.354,0,0.642,0.287,0.642,0.642c0,0.354-0.287,0.642-0.642,0.642H30.19
							c-0.354,0-0.642-0.287-0.642-0.642c0-0.354,0.287-0.642,0.642-0.642H39.243z"/>
						<path class="st18" d="M39.243,27.184c0.354,0,0.642,0.287,0.642,0.642c0,0.354-0.287,0.642-0.642,0.642H26.17
							c-0.354,0-0.642-0.287-0.642-0.642c0-0.354,0.287-0.642,0.642-0.642H39.243z"/>
						<path class="st18" d="M39.243,29.846c0.354,0,0.642,0.287,0.642,0.642c0,0.354-0.287,0.642-0.642,0.642H26.17
							c-0.354,0-0.642-0.287-0.642-0.642c0-0.354,0.287-0.642,0.642-0.642H39.243z"/>
						<path class="st18" d="M39.243,32.508c0.354,0,0.642,0.287,0.642,0.642c0,0.354-0.287,0.642-0.642,0.642H26.17
							c-0.354,0-0.642-0.287-0.642-0.642c0-0.354,0.287-0.642,0.642-0.642H39.243z"/>
						<path class="st18" d="M30.932,35.17c0.354,0,0.642,0.287,0.642,0.642c0,0.354-0.287,0.642-0.642,0.642H26.17
							c-0.354,0-0.642-0.287-0.642-0.642c0-0.354,0.287-0.642,0.642-0.642H30.932z"/>
						<path class="st18" d="M22.883,13.186c1.762,0,3.195,1.433,3.195,3.195s-1.433,3.195-3.195,3.195s-3.195-1.433-3.195-3.195
							S21.121,13.186,22.883,13.186z M24.791,16.381c0-1.054-0.854-1.908-1.908-1.908s-1.908,0.854-1.908,1.908
							s0.854,1.908,1.908,1.908S24.791,17.435,24.791,16.381z"/>
						<circle class="st25" cx="22.883" cy="16.381" r="1.908"/>
						<path class="st18" d="M23.529,22.126v16.722c0,0.354-0.292,0.646-0.646,0.646s-0.642-0.292-0.642-0.646V22.126
							c0-0.354,0.287-0.646,0.642-0.646S23.529,21.772,23.529,22.126z"/>
						<path class="st18" d="M15.468,29.096v14.41c0,0.762-0.621,1.383-1.383,1.383H3.853c-0.762,0-1.383-0.621-1.383-1.383v-14.41
							c0-0.762,0.621-1.383,1.383-1.383h1.75c0.354,0,0.642,0.287,0.642,0.642C6.245,28.713,5.957,29,5.603,29h-1.75
							c-0.054,0-0.096,0.042-0.096,0.096v14.41c0,0.05,0.042,0.096,0.096,0.096h10.231c0.054,0,0.1-0.046,0.1-0.096v-14.41
							c0-0.054-0.046-0.096-0.1-0.096H8.603c-0.354,0-0.642-0.287-0.642-0.646c0-0.354,0.287-0.642,0.642-0.642h5.482
							C14.847,27.713,15.468,28.333,15.468,29.096z"/>
						<path class="st18" d="M15.464,18.331v5.387c0,0.629-0.512,1.141-1.141,1.141H3.937c-0.633,0-1.141-0.512-1.141-1.141v-5.387
							c0-0.633,0.508-1.141,1.137-1.141h10.39C14.951,17.19,15.464,17.702,15.464,18.331z M14.797,23.384v-4.72
							c0-0.446-0.362-0.808-0.808-0.808H4.27c-0.446,0-0.808,0.362-0.808,0.808v4.72c0,0.446,0.362,0.804,0.808,0.804h9.719
							C14.435,24.188,14.797,23.83,14.797,23.384z"/>
						<path class="st23" d="M14.797,18.664v4.72c0,0.446-0.362,0.804-0.808,0.804H4.27c-0.446,0-0.808-0.358-0.808-0.804v-4.72
							c0-0.446,0.362-0.808,0.808-0.808h9.719C14.435,17.856,14.797,18.219,14.797,18.664z M12.798,20.522
							c0-0.183-0.15-0.333-0.333-0.333h-6.67c-0.183,0-0.333,0.15-0.333,0.333c0,0.183,0.15,0.333,0.333,0.333h6.67
							C12.648,20.856,12.798,20.706,12.798,20.522z M11.127,21.855c0-0.183-0.146-0.333-0.333-0.333H7.461
							c-0.183,0-0.333,0.15-0.333,0.333c0,0.187,0.15,0.333,0.333,0.333h3.333C10.981,22.189,11.127,22.039,11.127,21.855z"/>
						<path class="st18" d="M12.464,20.189c0.183,0,0.333,0.15,0.333,0.333c0,0.183-0.15,0.333-0.333,0.333h-6.67
							c-0.183,0-0.333-0.15-0.333-0.333c0-0.183,0.15-0.333,0.333-0.333H12.464z"/>
						<path class="st18" d="M11.702,32.079c0.354,0,0.642,0.287,0.642,0.646c0,0.354-0.287,0.642-0.642,0.642H8.378
							c-0.358,0-0.646-0.287-0.646-0.642c0-0.358,0.287-0.646,0.646-0.646H11.702z"/>
						<path class="st18" d="M11.702,34.466c0.354,0,0.642,0.287,0.642,0.642c0,0.354-0.287,0.642-0.642,0.642H6.236
							c-0.354,0-0.642-0.287-0.642-0.642c0-0.354,0.287-0.642,0.642-0.642H11.702z"/>
						<path class="st18" d="M11.702,36.849c0.354,0,0.642,0.287,0.642,0.646c0,0.354-0.287,0.642-0.642,0.642H6.236
							c-0.354,0-0.642-0.287-0.642-0.642c0-0.358,0.287-0.646,0.642-0.646H11.702z"/>
						<path class="st18" d="M10.794,21.522c0.187,0,0.333,0.15,0.333,0.333c0,0.183-0.146,0.333-0.333,0.333H7.461
							c-0.183,0-0.333-0.146-0.333-0.333c0-0.183,0.15-0.333,0.333-0.333H10.794z"/>
						<path class="st18" d="M9.336,39.236c0.358,0,0.646,0.287,0.646,0.642c0,0.354-0.287,0.642-0.646,0.642H6.236
							c-0.354,0-0.642-0.287-0.642-0.642c0-0.354,0.287-0.642,0.642-0.642H9.336z"/>
					</g>
					<g>
						<path class="st30" d="M14.322,17.19H3.933c-0.629,0-1.137,0.508-1.137,1.141v5.387c0,0.629,0.508,1.141,1.141,1.141h10.386
							c0.629,0,1.141-0.512,1.141-1.141v-5.387C15.464,17.702,14.951,17.19,14.322,17.19z"/>
						<path class="st31" d="M13.989,24.188H4.27c-0.446,0-0.808-0.358-0.808-0.804v-4.72c0-0.446,0.362-0.808,0.808-0.808h9.719
							c0.446,0,0.808,0.362,0.808,0.808v4.72C14.797,23.83,14.435,24.188,13.989,24.188z"/>
					</g>
				</g>
			</g>
		</g>
	</g>
	<g class="st22">
		<g id="XMLID_5_">
			<g>
				<path class="st18" d="M35.804,16.692l3.189,5.579h-3.588h-2.79h-1.991l2.391-3.987l0.964,1.607L35.804,16.692z M37.401,21.347
					l-1.597-2.79l-1.597,2.79H37.401z M33.452,20.811l-0.438-0.73l-0.76,1.266h0.891L33.452,20.811z"/>
				<polygon class="st25" points="35.804,18.557 37.401,21.347 34.207,21.347 				"/>
				<polygon class="st25" points="33.014,20.081 33.452,20.811 33.146,21.347 32.255,21.347 				"/>
			</g>
		</g>
	</g>
</g>
</svg>
