<?xml version="1.0" encoding="utf-8"?>
<!-- Generator: Adobe Illustrator 24.2.1, SVG Export Plug-In . SVG Version: 6.00 Build 0)  -->
<svg version="1.1" id="Capa_1" xmlns="http://www.w3.org/2000/svg" xmlns:xlink="http://www.w3.org/1999/xlink" x="0px" y="0px"
	 viewBox="0 0 50 50" style="enable-background:new 0 0 50 50;" xml:space="preserve">
<style type="text/css">
	.st0{opacity:0.6;}
	.st1{clip-path:url(#SVGID_2_);fill:none;stroke:#23334B;stroke-width:0.75;stroke-miterlimit:10;}
	.st2{clip-path:url(#SVGID_4_);fill:none;stroke:#23334B;stroke-width:0.75;stroke-miterlimit:10;}
	.st3{clip-path:url(#SVGID_6_);fill:none;stroke:#23334B;stroke-width:0.75;stroke-miterlimit:10;}
	.st4{clip-path:url(#SVGID_8_);fill:none;stroke:#23334B;stroke-width:0.75;stroke-miterlimit:10;}
	.st5{clip-path:url(#SVGID_10_);fill:#23334B;}
	.st6{clip-path:url(#SVGID_12_);fill:none;stroke:#23334B;stroke-width:0.75;stroke-miterlimit:10;}
	.st7{clip-path:url(#SVGID_14_);fill:#23334B;}
	.st8{clip-path:url(#SVGID_16_);fill:none;stroke:#23334B;stroke-width:0.75;stroke-miterlimit:10;}
	.st9{clip-path:url(#SVGID_18_);fill:#23334B;}
	.st10{clip-path:url(#SVGID_20_);fill:none;stroke:#23334B;stroke-width:0.75;stroke-miterlimit:10;}
	.st11{clip-path:url(#SVGID_22_);fill:#23334B;}
	.st12{clip-path:url(#SVGID_24_);fill:none;stroke:#23334B;stroke-width:0.75;stroke-miterlimit:10;}
	.st13{clip-path:url(#SVGID_26_);fill:#23334B;}
	.st14{clip-path:url(#SVGID_26_);fill:none;stroke:#23334B;stroke-width:0.25;stroke-miterlimit:10;}
	.st15{clip-path:url(#SVGID_28_);fill:none;stroke:#23334B;stroke-width:0.75;stroke-miterlimit:10;}
	.st16{clip-path:url(#SVGID_30_);fill:#23334B;}
	.st17{opacity:0.5;}
	.st18{fill:#23334B;}
	.st19{clip-path:url(#SVGID_32_);fill:none;stroke:#23334B;stroke-width:0.75;stroke-miterlimit:10;}
	.st20{opacity:0.6;fill:#23334B;}
	.st21{opacity:0.6;fill:none;stroke:#23334B;stroke-width:0.75;stroke-miterlimit:10;}
	.st22{opacity:0.9;}
	.st23{fill:#FFFFFF;}
	.st24{fill:#AC92EC;}
	.st25{fill:#00C6B3;}
	.st26{fill:#EAC6BB;}
	.st27{fill:#656D78;}
	.st28{fill:#ED5565;}
	.st29{opacity:0.9;fill:#FFFFFF;}
	.st30{fill:none;stroke:#23334B;stroke-width:0.75;stroke-miterlimit:10;}
	.st31{fill:none;stroke:#23334B;stroke-width:0.5;stroke-miterlimit:10;}
	.st32{opacity:0.9;fill:none;stroke:#23334B;stroke-width:2;stroke-miterlimit:10;}
</style>
<g class="st22">
	<g>
		<g id="XMLID_1_">
			<g>
				<path class="st18" d="M45.906,11.853v13.423c0,2.585-2.103,4.683-4.688,4.683h-6.342v0.854c0,1.452-1.182,2.629-2.629,2.629
					H28.21v2.518c0.714,0.391,1.196,1.148,1.196,2.011v8.031c0,0.444-0.357,0.796-0.796,0.796h-6.154
					c-0.439,0-0.796-0.352-0.796-0.796v-8.031c0-0.863,0.482-1.621,1.191-2.011v-2.518h-4.032c-1.452,0-2.629-1.177-2.629-2.629
					V29.96H9.843c-2.58,0-4.683-2.098-4.683-4.683V11.853c0-2.58,2.103-4.683,4.683-4.683h31.375
					C43.803,7.17,45.906,9.273,45.906,11.853z M44.314,25.276V11.853c0-1.568-1.177-2.865-2.691-3.068v6.183
					c0,0.439-0.357,0.796-0.796,0.796c-0.439,0-0.796-0.357-0.796-0.796V8.762H12.457v19.606h1.457l7.032-8.715
					c0.154-0.188,0.386-0.299,0.632-0.294c0.241,0,0.473,0.116,0.617,0.309l2.952,3.82l4.167-5.286
					c0.15-0.193,0.381-0.304,0.627-0.304c0.241,0,0.473,0.111,0.622,0.304l8.016,10.167h1.452v-6.203
					c0-0.444,0.357-0.796,0.796-0.796c0.439,0,0.796,0.352,0.796,0.796v6.179C43.138,28.146,44.314,26.844,44.314,25.276z
					 M36.554,28.368l-6.613-8.392l-6.617,8.392H36.554z M33.284,30.813V29.96H17.782v0.854c0,0.574,0.463,1.037,1.037,1.037h13.428
					C32.816,31.85,33.284,31.387,33.284,30.813z M27.814,45.206v-7.235c0-0.386-0.314-0.699-0.699-0.699h-3.164
					c-0.386,0-0.699,0.314-0.699,0.699v7.235H27.814z M26.618,35.68v-2.238h-2.175v2.238H26.618z M24.129,24.775l-2.576-3.338
					l-5.595,6.931h5.339L24.129,24.775z M10.866,28.368v-9.029V8.762H9.843c-1.703,0-3.092,1.389-3.092,3.092v7.486v5.937
					c0,1.707,1.389,3.092,3.092,3.092H10.866z"/>
				<path class="st23" d="M44.314,11.853v13.423c0,1.568-1.177,2.87-2.691,3.068v-6.179c0-0.444-0.357-0.796-0.796-0.796
					c-0.439,0-0.796,0.352-0.796,0.796v6.203H38.58l-8.016-10.167c-0.15-0.193-0.381-0.304-0.622-0.304
					c-0.246,0-0.477,0.111-0.627,0.304l-4.167,5.286l-2.952-3.82c-0.145-0.193-0.376-0.309-0.617-0.309
					c-0.246-0.005-0.477,0.106-0.632,0.294l-7.032,8.715h-1.457V8.762h27.574v6.207c0,0.439,0.357,0.796,0.796,0.796
					c0.439,0,0.796-0.357,0.796-0.796V8.786C43.138,8.988,44.314,10.286,44.314,11.853z M41.604,18.76
					c0.077-0.328-0.072-0.68-0.357-0.854c-0.285-0.178-0.666-0.154-0.926,0.058c-0.256,0.212-0.352,0.569-0.241,0.883
					c0.111,0.314,0.415,0.531,0.748,0.531C41.194,19.378,41.517,19.117,41.604,18.76z M38.367,10.754
					c0-0.637-0.521-1.158-1.158-1.158c-0.641,0-1.162,0.521-1.162,1.158c0,0.068,0.005,0.13,0.019,0.193L34.49,11.82
					c-0.203-0.178-0.473-0.289-0.767-0.289c-0.637,0-1.158,0.521-1.158,1.158c0,0.641,0.521,1.162,1.158,1.162
					c0.294,0,0.564-0.111,0.767-0.289l1.577,0.873c-0.014,0.063-0.019,0.125-0.019,0.193c0,0.637,0.521,1.158,1.162,1.158
					c0.637,0,1.158-0.521,1.158-1.158c0-0.641-0.521-1.162-1.158-1.162c-0.299,0-0.564,0.111-0.767,0.294l-1.577-0.878
					c0.014-0.063,0.019-0.125,0.019-0.193c0-0.063-0.005-0.13-0.019-0.188l1.577-0.878c0.203,0.183,0.468,0.294,0.767,0.294
					C37.847,11.916,38.367,11.395,38.367,10.754z M30.925,14.627v-1.939c0-0.637-0.521-1.158-1.158-1.158h-0.391v-0.969
					c0-0.535-0.434-0.969-0.965-0.969c-0.704,0-0.887,0.627-0.955,0.863l-0.304,1.076h-0.482c0-0.217-0.174-0.391-0.391-0.391
					h-1.543c-0.217,0-0.391,0.174-0.391,0.391v3.868c0,0.212,0.174,0.386,0.391,0.386h1.543c0.217,0,0.391-0.174,0.391-0.386h0.222
					l0.275,0.275c0.019,0.014,0.039,0.034,0.058,0.043c0.029,0.019,0.058,0.034,0.092,0.043c0.029,0.014,0.058,0.019,0.087,0.019
					c0.014,0.005,0.024,0.005,0.039,0.005h2.325C30.404,15.784,30.925,15.263,30.925,14.627z M21.563,12.21
					c0-0.506-0.198-0.984-0.555-1.341c-0.357-0.357-0.83-0.555-1.341-0.555c-0.444,0-0.863,0.15-1.201,0.429
					c-0.338-0.28-0.757-0.429-1.201-0.429c-0.506,0-0.984,0.198-1.341,0.555c-0.357,0.357-0.555,0.834-0.555,1.341
					c0,0.506,0.198,0.984,0.555,1.341l2.267,2.267c0.072,0.072,0.174,0.111,0.275,0.111c0.101,0,0.203-0.039,0.275-0.111
					l2.132-2.137l0.135-0.13C21.366,13.194,21.563,12.717,21.563,12.21z"/>
				<path class="st18" d="M41.247,17.907c0.285,0.174,0.434,0.526,0.357,0.854c-0.087,0.357-0.41,0.617-0.777,0.617
					c-0.333,0-0.637-0.217-0.748-0.531c-0.111-0.314-0.014-0.67,0.241-0.883C40.581,17.752,40.962,17.728,41.247,17.907z"/>
				<path class="st18" d="M37.21,9.596c0.637,0,1.158,0.521,1.158,1.158c0,0.641-0.521,1.162-1.158,1.162
					c-0.299,0-0.564-0.111-0.767-0.294l0.275-0.154c0.178-0.096,0.251-0.314,0.169-0.497c0.068,0.101,0.188,0.169,0.323,0.169
					c0.212,0,0.386-0.169,0.386-0.386c0-0.212-0.174-0.386-0.386-0.386c-0.217,0-0.391,0.174-0.391,0.386
					c0,0.063,0.014,0.125,0.043,0.178c-0.106-0.183-0.338-0.246-0.516-0.14l-0.28,0.154c-0.014-0.063-0.019-0.125-0.019-0.193
					C36.047,10.117,36.568,9.596,37.21,9.596z"/>
				<path class="st18" d="M37.21,13.464c0.637,0,1.158,0.521,1.158,1.162c0,0.637-0.521,1.158-1.158,1.158
					c-0.641,0-1.162-0.521-1.162-1.158c0-0.068,0.005-0.13,0.019-0.193l0.275,0.154c0.063,0.034,0.125,0.048,0.188,0.048
					c0.125,0,0.246-0.058,0.318-0.164c-0.019,0.048-0.029,0.101-0.029,0.154c0,0.212,0.174,0.386,0.391,0.386
					c0.212,0,0.386-0.174,0.386-0.386c0-0.217-0.174-0.391-0.386-0.391c-0.135,0-0.256,0.068-0.323,0.174
					c0.082-0.183,0.01-0.4-0.169-0.497l-0.275-0.154C36.646,13.575,36.911,13.464,37.21,13.464z"/>
				<path class="st24" d="M37.21,10.368c0.212,0,0.386,0.174,0.386,0.386c0,0.217-0.174,0.386-0.386,0.386
					c-0.135,0-0.256-0.068-0.323-0.169c-0.005-0.01-0.01-0.019-0.014-0.029c0-0.005-0.01-0.01-0.01-0.01
					c-0.029-0.053-0.043-0.116-0.043-0.178C36.819,10.542,36.993,10.368,37.21,10.368z"/>
				<path class="st24" d="M37.21,14.236c0.212,0,0.386,0.174,0.386,0.391c0,0.212-0.174,0.386-0.386,0.386
					c-0.217,0-0.391-0.174-0.391-0.386c0-0.053,0.01-0.106,0.029-0.154c0.01-0.01,0.019-0.024,0.024-0.034
					c0.005-0.01,0.01-0.019,0.014-0.029C36.954,14.304,37.075,14.236,37.21,14.236z"/>
				<path class="st18" d="M36.887,10.971c0.082,0.183,0.01,0.4-0.169,0.497l-0.275,0.154c-0.198-0.169-0.333-0.41-0.376-0.675
					l0.28-0.154c0.178-0.106,0.41-0.043,0.516,0.14c0,0,0.01,0.005,0.01,0.01C36.877,10.951,36.882,10.961,36.887,10.971z"/>
				<path class="st18" d="M36.718,13.913c0.178,0.096,0.251,0.314,0.169,0.497c-0.005,0.01-0.01,0.019-0.014,0.029
					c-0.005,0.01-0.014,0.024-0.024,0.034c-0.072,0.106-0.193,0.164-0.318,0.164c-0.063,0-0.125-0.014-0.188-0.048l-0.275-0.154
					c0.043-0.27,0.178-0.506,0.376-0.675L36.718,13.913z"/>
				<polygon class="st25" points="29.941,19.976 36.554,28.368 23.324,28.368 				"/>
				<path class="st18" d="M36.443,11.622L34.866,12.5c-0.043-0.27-0.178-0.506-0.376-0.68l1.577-0.873
					C36.11,11.212,36.245,11.453,36.443,11.622z"/>
				<path class="st18" d="M36.443,13.759c-0.198,0.169-0.333,0.405-0.376,0.675l-1.577-0.873c0.198-0.174,0.333-0.41,0.376-0.68
					L36.443,13.759z"/>
				<path class="st18" d="M34.866,12.5c0.014,0.058,0.019,0.125,0.019,0.188c0,0.068-0.005,0.13-0.019,0.193l-0.28-0.154
					c-0.029-0.014-0.058-0.029-0.087-0.034c0.034-0.01,0.063-0.024,0.092-0.039L34.866,12.5z"/>
				<path class="st18" d="M34.866,12.5l-0.275,0.154c-0.029,0.014-0.058,0.029-0.092,0.039c-0.058-0.014-0.121-0.019-0.178,0
					c-0.106-0.024-0.203-0.087-0.256-0.193c-0.106-0.183-0.039-0.42,0.15-0.526l0.275-0.154C34.687,11.993,34.822,12.23,34.866,12.5
					z"/>
				<path class="st18" d="M34.586,12.726l0.28,0.154c-0.043,0.27-0.178,0.506-0.376,0.68l-0.275-0.154
					c-0.178-0.101-0.251-0.318-0.169-0.502c0.005-0.01,0.01-0.019,0.014-0.029c0.005-0.01,0.014-0.024,0.024-0.034
					c0.058-0.082,0.145-0.135,0.236-0.15c0.029,0.005,0.053,0.01,0.082,0.01c0.034,0,0.068-0.005,0.096-0.01
					C34.528,12.697,34.557,12.712,34.586,12.726z"/>
				<path class="st18" d="M34.321,12.693c0.058-0.019,0.121-0.014,0.178,0c-0.029,0.005-0.063,0.01-0.096,0.01
					C34.374,12.702,34.35,12.697,34.321,12.693z"/>
				<path class="st18" d="M34.49,11.82l-0.275,0.154c-0.188,0.106-0.256,0.342-0.15,0.526c-0.068-0.116-0.193-0.198-0.342-0.198
					c-0.212,0-0.386,0.174-0.386,0.386c0,0.217,0.174,0.391,0.386,0.391c0.135,0,0.256-0.068,0.323-0.174
					c-0.082,0.183-0.01,0.4,0.169,0.502l0.275,0.154c-0.203,0.178-0.473,0.289-0.767,0.289c-0.637,0-1.158-0.521-1.158-1.162
					c0-0.637,0.521-1.158,1.158-1.158C34.017,11.53,34.287,11.641,34.49,11.82z"/>
				<path class="st18" d="M34.065,12.5c0.053,0.106,0.15,0.169,0.256,0.193c-0.092,0.014-0.178,0.068-0.236,0.15
					c0.019-0.048,0.029-0.101,0.029-0.154C34.113,12.62,34.094,12.558,34.065,12.5z"/>
				<path class="st24" d="M34.113,12.688c0,0.053-0.01,0.106-0.029,0.154c-0.01,0.01-0.019,0.024-0.024,0.034
					c-0.005,0.01-0.01,0.019-0.014,0.029c-0.068,0.106-0.188,0.174-0.323,0.174c-0.212,0-0.386-0.174-0.386-0.391
					c0-0.212,0.174-0.386,0.386-0.386c0.15,0,0.275,0.082,0.342,0.198C34.094,12.558,34.113,12.62,34.113,12.688z"/>
				<path class="st23" d="M33.284,29.96v0.854c0,0.574-0.468,1.037-1.037,1.037H18.819c-0.574,0-1.037-0.463-1.037-1.037V29.96
					H33.284z"/>
				<path class="st18" d="M30.925,12.688v1.939c0-0.217-0.169-0.391-0.386-0.391c-0.212,0-0.386,0.174-0.386,0.391v-1.939
					c0,0.217,0.174,0.391,0.386,0.391C30.756,13.079,30.925,12.905,30.925,12.688z"/>
				<path class="st18" d="M29.768,11.53c0.637,0,1.158,0.521,1.158,1.158c0-0.212-0.169-0.386-0.386-0.386
					c-0.212,0-0.386,0.174-0.386,0.386c0-0.212-0.174-0.386-0.386-0.386c0.212,0,0.386-0.174,0.386-0.386S29.98,11.53,29.768,11.53z
					"/>
				<path class="st18" d="M30.925,14.627c0,0.637-0.521,1.158-1.158,1.158c0.212,0,0.386-0.174,0.386-0.386
					s-0.174-0.386-0.386-0.386c0.212,0,0.386-0.174,0.386-0.386c0,0.212,0.174,0.386,0.386,0.386
					C30.756,15.013,30.925,14.839,30.925,14.627z"/>
				<path class="st18" d="M30.539,12.302c0.217,0,0.386,0.174,0.386,0.386c0,0.217-0.169,0.391-0.386,0.391
					c-0.212,0-0.386-0.174-0.386-0.391C30.154,12.476,30.327,12.302,30.539,12.302z"/>
				<path class="st18" d="M30.539,14.236c0.217,0,0.386,0.174,0.386,0.391c0,0.212-0.169,0.386-0.386,0.386
					c-0.212,0-0.386-0.174-0.386-0.386C30.154,14.41,30.327,14.236,30.539,14.236z"/>
				<path class="st26" d="M30.154,12.688v1.939c0,0.212-0.174,0.386-0.386,0.386h-2.161l-0.275-0.275h-0.005
					c-0.048-0.053-0.116-0.087-0.193-0.101c-0.024-0.005-0.053-0.01-0.077-0.01h-0.386v-2.325h0.772c0.024,0,0.053-0.005,0.077-0.01
					c0.145-0.029,0.256-0.135,0.294-0.27l0.391-1.355c0.082-0.299,0.135-0.299,0.207-0.299c0.106,0,0.193,0.087,0.193,0.193v1.355
					c0,0.212,0.174,0.386,0.386,0.386h0.777C29.98,12.302,30.154,12.476,30.154,12.688z"/>
				<path class="st18" d="M29.768,11.53c0.212,0,0.386,0.174,0.386,0.386s-0.174,0.386-0.386,0.386
					c-0.217,0-0.391-0.174-0.391-0.386S29.551,11.53,29.768,11.53z"/>
				<path class="st18" d="M29.768,15.013c0.212,0,0.386,0.174,0.386,0.386s-0.174,0.386-0.386,0.386
					c-0.217,0-0.391-0.174-0.391-0.386S29.551,15.013,29.768,15.013z"/>
				<path class="st18" d="M29.377,11.53h0.391c-0.217,0-0.391,0.174-0.391,0.386V11.53z"/>
				<path class="st18" d="M29.768,12.302h-0.777c0.217,0,0.386-0.174,0.386-0.386C29.377,12.128,29.551,12.302,29.768,12.302z"/>
				<path class="st18" d="M27.607,15.013h2.161c-0.217,0-0.391,0.174-0.391,0.386s0.174,0.386,0.391,0.386h-2.325
					c0.101,0,0.198-0.039,0.275-0.111c0.15-0.154,0.15-0.396,0-0.55L27.607,15.013z"/>
				<path class="st18" d="M29.377,11.53v0.386c0,0.212-0.169,0.386-0.386,0.386c-0.212,0-0.386-0.174-0.386-0.386
					s0.174-0.386,0.386-0.386H29.377z"/>
				<path class="st18" d="M29.377,10.561v0.969h-0.386c-0.212,0-0.386,0.174-0.386,0.386v-1.355c0,0.212,0.174,0.386,0.386,0.386
					C29.208,10.947,29.377,10.773,29.377,10.561z"/>
				<path class="st18" d="M28.412,9.591c0.531,0,0.965,0.434,0.965,0.969c0-0.212-0.169-0.386-0.386-0.386
					c-0.212,0-0.386,0.174-0.386,0.386c0-0.106-0.087-0.193-0.193-0.193c-0.072,0-0.125,0-0.207,0.299
					c0.058-0.207-0.063-0.42-0.27-0.477c-0.203-0.058-0.415,0.058-0.477,0.265C27.525,10.218,27.708,9.591,28.412,9.591z"/>
				<circle class="st18" cx="28.991" cy="10.561" r="0.386"/>
				<path class="st18" d="M27.935,10.189c0.207,0.058,0.328,0.27,0.27,0.477c-0.053,0.169-0.207,0.28-0.376,0.28
					c-0.034,0-0.068-0.005-0.106-0.014c-0.203-0.058-0.323-0.27-0.265-0.477C27.52,10.247,27.732,10.132,27.935,10.189z"/>
				<path class="st18" d="M28.205,10.667l-0.391,1.355c0.01-0.034,0.014-0.068,0.014-0.106c0-0.212-0.169-0.386-0.386-0.386h-0.289
					l0.304-1.076c-0.058,0.207,0.063,0.42,0.265,0.477c0.039,0.01,0.072,0.014,0.106,0.014
					C27.998,10.947,28.152,10.836,28.205,10.667z"/>
				<path class="st18" d="M27.829,11.916c0,0.039-0.005,0.072-0.014,0.106c-0.039,0.135-0.15,0.241-0.294,0.27
					c-0.024,0.005-0.048,0.01-0.077,0.01c-0.034,0-0.068-0.005-0.106-0.014c-0.203-0.058-0.323-0.275-0.265-0.477l0.082-0.28h0.289
					C27.66,11.53,27.829,11.704,27.829,11.916z"/>
				<path class="st23" d="M27.814,37.971v7.235h-4.563v-7.235c0-0.386,0.314-0.699,0.699-0.699h3.164
					C27.501,37.272,27.814,37.585,27.814,37.971z"/>
				<path class="st18" d="M27.718,15.124c0.15,0.154,0.15,0.396,0,0.55c-0.077,0.072-0.174,0.111-0.275,0.111
					c-0.014,0-0.024,0-0.039-0.005c-0.029,0-0.058-0.005-0.087-0.019c-0.034-0.01-0.063-0.024-0.092-0.043
					c-0.101-0.068-0.169-0.183-0.169-0.318c0.212,0,0.386-0.174,0.386-0.386h0.164L27.718,15.124z"/>
				<path class="st18" d="M27.607,15.013h-0.164c0-0.106-0.043-0.203-0.116-0.275h0.005L27.607,15.013z"/>
				<path class="st18" d="M27.443,12.302c0.029,0,0.053-0.005,0.077-0.01C27.496,12.297,27.467,12.302,27.443,12.302z"/>
				<path class="st18" d="M27.443,12.302h-0.772V11.53h0.482l-0.082,0.28c-0.058,0.203,0.063,0.42,0.265,0.477
					C27.375,12.297,27.409,12.302,27.443,12.302z"/>
				<path class="st18" d="M27.327,14.738c0.072,0.072,0.116,0.169,0.116,0.275c-0.212,0-0.386,0.174-0.386,0.386h-0.164
					l-0.111-0.111c-0.072-0.077-0.111-0.178-0.111-0.275c0-0.101,0.039-0.203,0.111-0.275c0.077-0.072,0.178-0.111,0.275-0.111
					c0.029,0,0.053,0.005,0.077,0.01C27.211,14.651,27.279,14.685,27.327,14.738z"/>
				<path class="st18" d="M27.404,15.78c-0.029,0-0.058-0.005-0.087-0.019C27.346,15.775,27.375,15.78,27.404,15.78z"/>
				<path class="st18" d="M27.226,15.717c-0.019-0.01-0.039-0.029-0.058-0.043l-0.275-0.275h0.164
					C27.057,15.534,27.125,15.649,27.226,15.717z"/>
				<path class="st18" d="M27.134,14.636c-0.024-0.005-0.048-0.01-0.077-0.01C27.081,14.627,27.11,14.632,27.134,14.636z"/>
				<path class="st18" d="M27.443,15.013c0,0.212-0.174,0.386-0.386,0.386C27.057,15.186,27.231,15.013,27.443,15.013z"/>
				<path class="st18" d="M26.671,14.627h0.386c-0.096,0-0.198,0.039-0.275,0.111c-0.072,0.072-0.111,0.174-0.111,0.275V14.627z"/>
				<path class="st18" d="M26.893,15.398h-0.222v-0.386c0,0.096,0.039,0.198,0.111,0.275L26.893,15.398z"/>
				<path class="st18" d="M26.671,15.013v0.386h-0.391c-0.212,0-0.386-0.174-0.386-0.386c0-0.217,0.174-0.386,0.386-0.386h0.391
					V15.013z"/>
				<path class="st18" d="M26.671,12.302v2.325h-0.391c-0.212,0-0.386,0.169-0.386,0.386v-3.096c0,0.212,0.174,0.386,0.386,0.386
					H26.671z"/>
				<path class="st18" d="M26.671,11.53v0.772h-0.391c-0.212,0-0.386-0.174-0.386-0.386s0.174-0.386,0.386-0.386H26.671z"/>
				<path class="st18" d="M26.671,11.53h-0.391c-0.212,0-0.386,0.174-0.386,0.386h-0.772v3.096h0.772
					c0,0.212,0.174,0.386,0.386,0.386h0.391c0,0.212-0.174,0.386-0.391,0.386h-1.543c-0.217,0-0.391-0.174-0.391-0.386V11.53
					c0-0.217,0.174-0.391,0.391-0.391h1.543C26.498,11.14,26.671,11.313,26.671,11.53z"/>
				<rect x="24.443" y="33.442" class="st23" width="2.175" height="2.238"/>
				<rect x="25.123" y="11.916" class="st27" width="0.772" height="3.096"/>
				<polygon class="st25" points="21.554,21.437 24.129,24.775 21.298,28.368 15.959,28.368 				"/>
				<path class="st18" d="M21.009,10.869c0.357,0.357,0.555,0.834,0.555,1.341c0,0.506-0.198,0.984-0.555,1.341l-0.135,0.13
					l-2.132,2.137c-0.072,0.072-0.174,0.111-0.275,0.111c-0.101,0-0.203-0.039-0.275-0.111l-2.267-2.267
					c-0.357-0.357-0.555-0.834-0.555-1.341c0-0.506,0.198-0.984,0.555-1.341c0.357-0.357,0.834-0.555,1.341-0.555
					c0.444,0,0.863,0.15,1.201,0.429c0.338-0.28,0.757-0.429,1.201-0.429C20.179,10.315,20.652,10.513,21.009,10.869z M20.792,12.21
					c0-0.299-0.121-0.584-0.333-0.791c-0.42-0.429-1.162-0.424-1.587,0l-0.13,0.13c-0.154,0.15-0.396,0.15-0.545,0l-0.135-0.13
					c-0.212-0.212-0.497-0.333-0.796-0.333s-0.584,0.121-0.791,0.328c-0.212,0.212-0.328,0.497-0.328,0.796
					c0,0.299,0.116,0.579,0.328,0.791l1.992,1.992l1.997-1.992C20.671,12.789,20.792,12.509,20.792,12.21z"/>
				<path class="st28" d="M20.459,11.419c0.212,0.207,0.333,0.492,0.333,0.791c0,0.299-0.121,0.579-0.328,0.791l-1.997,1.992
					l-1.992-1.992c-0.212-0.212-0.328-0.492-0.328-0.791c0-0.299,0.116-0.584,0.328-0.796c0.207-0.207,0.492-0.328,0.791-0.328
					s0.584,0.121,0.796,0.333l0.135,0.13c0.15,0.15,0.391,0.15,0.545,0l0.13-0.13C19.297,10.995,20.039,10.99,20.459,11.419z"/>
				<path class="st23" d="M10.866,19.339v9.029H9.843c-1.703,0-3.092-1.384-3.092-3.092v-5.937H8.01
					c0,0.439,0.357,0.796,0.796,0.796c0.439,0,0.796-0.357,0.796-0.796H10.866z"/>
				<path class="st23" d="M10.866,8.762v10.577H9.602v-1.543C9.602,17.352,9.245,17,8.806,17c-0.439,0-0.796,0.352-0.796,0.796
					v1.543H6.751v-7.486c0-1.703,1.389-3.092,3.092-3.092H10.866z"/>
				<path class="st18" d="M9.602,17.796v1.543c0,0.439-0.357,0.796-0.796,0.796c-0.439,0-0.796-0.357-0.796-0.796v-1.543
					C8.01,17.352,8.367,17,8.806,17C9.245,17,9.602,17.352,9.602,17.796z"/>
			</g>
		</g>
	</g>
</g>
</svg>
