<?xml version="1.0" encoding="utf-8"?>
<!-- Generator: Adobe Illustrator 24.2.1, SVG Export Plug-In . SVG Version: 6.00 Build 0)  -->
<svg version="1.1" id="Capa_1" xmlns="http://www.w3.org/2000/svg" xmlns:xlink="http://www.w3.org/1999/xlink" x="0px" y="0px"
	 viewBox="0 0 50 50" style="enable-background:new 0 0 50 50;" xml:space="preserve">
<style type="text/css">
	.st0{opacity:0.6;}
	.st1{clip-path:url(#SVGID_2_);fill:none;stroke:#23334B;stroke-width:0.75;stroke-miterlimit:10;}
	.st2{clip-path:url(#SVGID_4_);fill:none;stroke:#23334B;stroke-width:0.75;stroke-miterlimit:10;}
	.st3{clip-path:url(#SVGID_6_);fill:none;stroke:#23334B;stroke-width:0.75;stroke-miterlimit:10;}
	.st4{clip-path:url(#SVGID_8_);fill:none;stroke:#23334B;stroke-width:0.75;stroke-miterlimit:10;}
	.st5{clip-path:url(#SVGID_10_);fill:#23334B;}
	.st6{clip-path:url(#SVGID_12_);fill:none;stroke:#23334B;stroke-width:0.75;stroke-miterlimit:10;}
	.st7{clip-path:url(#SVGID_14_);fill:#23334B;}
	.st8{clip-path:url(#SVGID_16_);fill:none;stroke:#23334B;stroke-width:0.75;stroke-miterlimit:10;}
	.st9{clip-path:url(#SVGID_18_);fill:#23334B;}
	.st10{clip-path:url(#SVGID_20_);fill:none;stroke:#23334B;stroke-width:0.75;stroke-miterlimit:10;}
	.st11{clip-path:url(#SVGID_22_);fill:#23334B;}
	.st12{clip-path:url(#SVGID_24_);fill:none;stroke:#23334B;stroke-width:0.75;stroke-miterlimit:10;}
	.st13{clip-path:url(#SVGID_26_);fill:#23334B;}
	.st14{clip-path:url(#SVGID_26_);fill:none;stroke:#23334B;stroke-width:0.25;stroke-miterlimit:10;}
	.st15{clip-path:url(#SVGID_28_);fill:none;stroke:#23334B;stroke-width:0.75;stroke-miterlimit:10;}
	.st16{clip-path:url(#SVGID_30_);fill:#23334B;}
	.st17{opacity:0.5;}
	.st18{fill:#23334B;}
	.st19{clip-path:url(#SVGID_32_);fill:none;stroke:#23334B;stroke-width:0.75;stroke-miterlimit:10;}
	.st20{opacity:0.6;fill:#23334B;}
	.st21{opacity:0.6;fill:none;stroke:#23334B;stroke-width:0.75;stroke-miterlimit:10;}
	.st22{opacity:0.9;}
	.st23{fill:#FFFFFF;}
	.st24{fill:#AC92EC;}
	.st25{fill:#00C6B3;}
	.st26{fill:#EAC6BB;}
	.st27{fill:#656D78;}
	.st28{fill:#ED5565;}
	.st29{opacity:0.9;fill:#FFFFFF;}
	.st30{fill:none;stroke:#23334B;stroke-width:0.75;stroke-miterlimit:10;}
	.st31{fill:none;stroke:#23334B;stroke-width:0.5;stroke-miterlimit:10;}
	.st32{opacity:0.9;fill:none;stroke:#23334B;stroke-width:2;stroke-miterlimit:10;}
</style>
<g>
	<g class="st22">
		<g id="XMLID_4_">
			<g>
				<path class="st18" d="M44.503,41.883c0.058,0.792-0.198,1.556-0.714,2.154c-0.516,0.594-1.238,0.953-2.03,1.011
					c-0.074,0.004-0.144,0.008-0.219,0.008c-0.714,0-1.395-0.252-1.936-0.722l-5.002-4.329H7.158c-1.271,0-2.307-1.036-2.307-2.307
					V11.992c0-1.271,1.036-2.307,2.307-2.307h31.088c1.271,0,2.307,1.036,2.307,2.307V37.31l2.934,2.542
					C44.086,40.368,44.445,41.09,44.503,41.883z M42.617,43.022c0.248-0.285,0.367-0.652,0.343-1.028
					c-0.029-0.38-0.202-0.726-0.487-0.97l-2.171-1.882l-1.853,2.142l2.171,1.882c0.285,0.243,0.648,0.363,1.028,0.338
					C42.026,43.476,42.373,43.307,42.617,43.022z M37.276,40.269l1.857-2.142l-6.104-5.282c-0.182,0.437-0.433,0.85-0.755,1.222
					c-0.318,0.367-0.689,0.677-1.098,0.92L37.276,40.269z M39.006,35.969V18.545H6.403v19.153c0,0.417,0.338,0.755,0.755,0.755
					h25.657l-3.322-2.876c-0.21,0.029-0.417,0.045-0.627,0.045c-1.081,0-2.113-0.384-2.938-1.098
					c-1.085-0.941-2.051-2.526-2.517-4.201c-0.017-0.091-0.07-0.272-0.078-0.322c-0.037-0.215-0.054-0.243-0.099-0.483
					c-0.017-0.074-0.037-0.186-0.058-0.256c-0.004-0.021-0.008-0.045-0.008-0.05c-0.017-0.074-0.025-0.149-0.037-0.227
					c-0.012-0.116-0.012-0.351-0.012-0.351c-0.074-1.263,0.21-2.476,1.011-3.405c0.277-0.318,0.755-0.355,1.081-0.087
					c1.985,1.643,2.918,1.647,3.822,1.647c0.768,0,1.638,0,2.765,0.908c0.008,0.008,0.017,0.012,0.021,0.021
					c0.314,0.268,0.582,0.574,0.805,0.908c0.017,0.025,0.033,0.054,0.05,0.074c0.004,0.004,0.008,0.008,0.012,0.012
					c0.091,0.169,0.177,0.338,0.272,0.499c0.033,0.074,0.054,0.103,0.103,0.223c0.062,0.14,0.074,0.202,0.103,0.318
					c0.029,0.111,0.087,0.202,0.136,0.565c0.029,0.157,0.054,0.314,0.066,0.479c0.004,0.099,0.008,0.198,0.008,0.293L39.006,35.969z
					 M39.006,16.993v-5.002c0-0.417-0.343-0.755-0.759-0.755H7.158c-0.417,0-0.755,0.338-0.755,0.755v5.002H39.006z M31.103,33.051
					c0.516-0.594,0.772-1.358,0.714-2.142c-0.054-0.784-0.413-1.498-1.003-2.01c-0.697-0.561-1.106-0.561-1.783-0.561
					c-0.962,0-2.134,0-4.123-1.461c-0.821,1.927,0.499,5.146,2.035,6.475c0.594,0.516,1.358,0.768,2.142,0.71
					C29.873,34.009,30.587,33.645,31.103,33.051z"/>
				<path class="st27" d="M42.959,41.994c0.025,0.376-0.095,0.743-0.343,1.028c-0.243,0.285-0.59,0.454-0.97,0.483
					c-0.38,0.025-0.743-0.095-1.028-0.338l-2.171-1.882l1.853-2.142l2.171,1.882C42.757,41.268,42.93,41.615,42.959,41.994z"/>
				<path class="st27" d="M39.133,38.127l-1.857,2.142l-6.1-5.282c0.409-0.243,0.78-0.553,1.098-0.92
					c0.322-0.371,0.574-0.784,0.755-1.222L39.133,38.127z"/>
				<path class="st23" d="M39.006,18.545v17.424l-5.633-4.878c0-0.095-0.004-0.194-0.008-0.293
					c-0.012-0.165-0.037-0.322-0.066-0.479c-0.05-0.363-0.107-0.454-0.136-0.565c-0.029-0.116-0.041-0.177-0.103-0.318
					c-0.05-0.12-0.07-0.149-0.103-0.223c-0.095-0.161-0.182-0.33-0.272-0.499c-0.004-0.004-0.008-0.008-0.012-0.012
					c-0.017-0.021-0.033-0.05-0.05-0.074c-0.223-0.334-0.491-0.64-0.805-0.908c-0.004-0.008-0.012-0.012-0.021-0.021
					c-1.127-0.908-1.997-0.908-2.765-0.908c-0.904,0-1.836-0.004-3.822-1.647c-0.326-0.268-0.805-0.231-1.081,0.087
					c-0.801,0.929-1.085,2.142-1.011,3.405c0,0,0,0.235,0.012,0.351c0.012,0.078,0.021,0.153,0.037,0.227
					c0,0.004,0.004,0.029,0.008,0.05c0.021,0.07,0.041,0.182,0.058,0.256c0.045,0.239,0.062,0.268,0.099,0.483
					c0.008,0.05,0.062,0.231,0.078,0.322c0.466,1.676,1.432,3.26,2.517,4.201c0.825,0.714,1.857,1.098,2.938,1.098
					c0.21,0,0.417-0.017,0.627-0.045l3.322,2.876H7.158c-0.417,0-0.755-0.338-0.755-0.755V18.545H39.006z M24.281,36.398
					c0-0.425-0.31-0.801-0.512-0.801h-1.065c-0.198,0-0.516,0.376-0.516,0.801c0,0.429,0.318,0.747,0.516,0.747h1.065
					C23.971,37.145,24.281,36.827,24.281,36.398z M22.799,33.567c0-0.429-0.347-0.776-0.776-0.776h-3.458
					c-0.429,0-0.776,0.347-0.776,0.776s0.347,0.776,0.776,0.776h3.458C22.453,34.343,22.799,33.996,22.799,33.567z M21.933,30.431
					c0-0.429-0.347-0.776-0.776-0.776h-6.735c-0.425,0-0.772,0.347-0.772,0.776c0,0.425,0.347,0.772,0.772,0.772h6.735
					C21.586,31.202,21.933,30.856,21.933,30.431z M21.016,24.339c0-0.363-0.165-0.619-0.503-0.796l-2.406-1.296
					c-0.07-0.033-0.149-0.054-0.219-0.054c-0.256,0-0.462,0.235-0.462,0.607c0,0.297,0.124,0.52,0.347,0.623l1.803,0.904v0.021
					l-1.803,0.904c-0.223,0.107-0.347,0.33-0.347,0.627c0,0.371,0.206,0.607,0.462,0.607c0.07,0,0.149-0.025,0.219-0.054
					l2.406-1.296C20.851,24.954,21.016,24.698,21.016,24.339z M21.082,36.398c0-0.425-0.347-0.772-0.776-0.772h-2.295
					c-0.429,0-0.776,0.347-0.776,0.772c0,0.429,0.347,0.776,0.776,0.776h2.295C20.736,37.174,21.082,36.827,21.082,36.398z
					 M16.341,21.133c0.025-0.083,0.033-0.182,0.033-0.264c0-0.392-0.227-0.64-0.487-0.64c-0.21,0-0.388,0.182-0.466,0.512
					l-1.432,5.798c-0.025,0.083-0.029,0.177-0.029,0.264c0,0.392,0.223,0.636,0.487,0.636c0.206,0,0.388-0.177,0.462-0.508
					L16.341,21.133z M16.118,33.567c0-0.429-0.347-0.776-0.776-0.776H8.991c-0.425,0-0.772,0.347-0.772,0.776
					s0.347,0.776,0.772,0.776h6.351C15.771,34.343,16.118,33.996,16.118,33.567z M16.118,36.452c0-0.429-0.347-0.776-0.776-0.776
					H8.991c-0.425,0-0.772,0.347-0.772,0.776c0,0.429,0.347,0.776,0.772,0.776h6.351C15.771,37.228,16.118,36.881,16.118,36.452z
					 M12.556,23.423c0.223-0.103,0.347-0.326,0.347-0.623c0-0.371-0.206-0.607-0.462-0.607c-0.07,0-0.149,0.021-0.219,0.054
					l-2.406,1.296c-0.338,0.177-0.503,0.433-0.503,0.796c0,0.359,0.165,0.615,0.503,0.796l2.406,1.296
					c0.07,0.029,0.149,0.054,0.219,0.054c0.256,0,0.462-0.235,0.462-0.607c0-0.297-0.124-0.52-0.347-0.627l-1.803-0.904v-0.021
					L12.556,23.423z M12.061,30.431c0-0.429-0.347-0.776-0.776-0.776H8.991c-0.425,0-0.772,0.347-0.772,0.776
					c0,0.425,0.347,0.772,0.772,0.772h2.295C11.714,31.202,12.061,30.856,12.061,30.431z"/>
				<path class="st23" d="M39.006,11.992v5.002H6.403v-5.002c0-0.417,0.338-0.755,0.755-0.755h31.088
					C38.663,11.236,39.006,11.575,39.006,11.992z M36.368,14.117c0-0.429-0.347-0.776-0.772-0.776h-0.004
					c-0.429,0-0.772,0.347-0.772,0.776c0,0.425,0.347,0.772,0.776,0.772C36.022,14.889,36.368,14.542,36.368,14.117z M32.625,14.117
					c0-0.429-0.347-0.776-0.776-0.776h-0.004c-0.429,0-0.772,0.347-0.772,0.776c0,0.425,0.347,0.772,0.776,0.772
					C32.279,14.889,32.625,14.542,32.625,14.117z M28.878,14.117c0-0.429-0.347-0.776-0.776-0.776h-0.004
					c-0.425,0-0.772,0.347-0.772,0.776c0,0.425,0.351,0.772,0.776,0.772C28.531,14.889,28.878,14.542,28.878,14.117z M21.016,14.117
					c0-0.429-0.347-0.776-0.776-0.776H9.812c-0.425,0-0.776,0.347-0.776,0.776c0,0.425,0.351,0.772,0.776,0.772H20.24
					C20.67,14.889,21.016,14.542,21.016,14.117z"/>
				<path class="st18" d="M35.597,13.341c0.425,0,0.772,0.347,0.772,0.776c0,0.425-0.347,0.772-0.772,0.772
					c-0.429,0-0.776-0.347-0.776-0.772c0-0.429,0.343-0.776,0.772-0.776H35.597z"/>
				<path class="st18" d="M31.849,13.341c0.429,0,0.776,0.347,0.776,0.776c0,0.425-0.347,0.772-0.776,0.772
					c-0.429,0-0.776-0.347-0.776-0.772c0-0.429,0.343-0.776,0.772-0.776H31.849z"/>
				<path class="st24" d="M31.816,30.909c0.058,0.784-0.198,1.548-0.714,2.142c-0.516,0.594-1.23,0.957-2.018,1.011
					c-0.784,0.058-1.548-0.194-2.142-0.71c-1.535-1.329-2.856-4.548-2.035-6.475c1.989,1.461,3.161,1.461,4.123,1.461
					c0.677,0,1.085,0,1.783,0.561C31.404,29.411,31.763,30.125,31.816,30.909z"/>
				<path class="st18" d="M28.102,13.341c0.429,0,0.776,0.347,0.776,0.776c0,0.425-0.347,0.772-0.776,0.772
					c-0.425,0-0.776-0.347-0.776-0.772c0-0.429,0.347-0.776,0.772-0.776H28.102z"/>
				<path class="st18" d="M23.769,35.598c0.202,0,0.512,0.376,0.512,0.801c0,0.429-0.31,0.747-0.512,0.747h-1.065
					c-0.198,0-0.516-0.318-0.516-0.747c0-0.425,0.318-0.801,0.516-0.801H23.769z"/>
				<path class="st18" d="M22.023,32.791c0.429,0,0.776,0.347,0.776,0.776s-0.347,0.776-0.776,0.776h-3.458
					c-0.429,0-0.776-0.347-0.776-0.776s0.347-0.776,0.776-0.776H22.023z"/>
				<path class="st18" d="M21.157,29.655c0.429,0,0.776,0.347,0.776,0.776c0,0.425-0.347,0.772-0.776,0.772h-6.735
					c-0.425,0-0.772-0.347-0.772-0.772c0-0.429,0.347-0.776,0.772-0.776H21.157z"/>
				<path class="st18" d="M20.513,23.543c0.338,0.177,0.503,0.433,0.503,0.796c0,0.359-0.165,0.615-0.503,0.796l-2.406,1.296
					c-0.07,0.029-0.149,0.054-0.219,0.054c-0.256,0-0.462-0.235-0.462-0.607c0-0.297,0.124-0.52,0.347-0.627l1.803-0.904v-0.021
					l-1.803-0.904c-0.223-0.103-0.347-0.326-0.347-0.623c0-0.371,0.206-0.607,0.462-0.607c0.07,0,0.149,0.021,0.219,0.054
					L20.513,23.543z"/>
				<path class="st18" d="M20.307,35.626c0.429,0,0.776,0.347,0.776,0.772c0,0.429-0.347,0.776-0.776,0.776h-2.295
					c-0.429,0-0.776-0.347-0.776-0.776c0-0.425,0.347-0.772,0.776-0.772H20.307z"/>
				<path class="st18" d="M20.24,13.341c0.429,0,0.776,0.347,0.776,0.776c0,0.425-0.347,0.772-0.776,0.772H9.812
					c-0.425,0-0.776-0.347-0.776-0.772c0-0.429,0.351-0.776,0.776-0.776H20.24z"/>
				<path class="st18" d="M16.374,20.869c0,0.083-0.008,0.182-0.033,0.264l-1.432,5.798c-0.074,0.33-0.256,0.508-0.462,0.508
					c-0.264,0-0.487-0.243-0.487-0.636c0-0.087,0.004-0.182,0.029-0.264l1.432-5.798c0.078-0.33,0.256-0.512,0.466-0.512
					C16.147,20.229,16.374,20.477,16.374,20.869z"/>
				<path class="st18" d="M15.342,32.791c0.429,0,0.776,0.347,0.776,0.776s-0.347,0.776-0.776,0.776H8.991
					c-0.425,0-0.772-0.347-0.772-0.776s0.347-0.776,0.772-0.776H15.342z"/>
				<path class="st18" d="M15.342,35.676c0.429,0,0.776,0.347,0.776,0.776c0,0.429-0.347,0.776-0.776,0.776H8.991
					c-0.425,0-0.772-0.347-0.772-0.776c0-0.429,0.347-0.776,0.772-0.776H15.342z"/>
				<path class="st18" d="M12.903,22.8c0,0.297-0.124,0.52-0.347,0.623l-1.803,0.904v0.021l1.803,0.904
					c0.223,0.107,0.347,0.33,0.347,0.627c0,0.371-0.206,0.607-0.462,0.607c-0.07,0-0.149-0.025-0.219-0.054l-2.406-1.296
					c-0.338-0.182-0.503-0.437-0.503-0.796c0-0.363,0.165-0.619,0.503-0.796l2.406-1.296c0.07-0.033,0.149-0.054,0.219-0.054
					C12.696,22.193,12.903,22.429,12.903,22.8z"/>
				<path class="st18" d="M11.285,29.655c0.429,0,0.776,0.347,0.776,0.776c0,0.425-0.347,0.772-0.776,0.772H8.991
					c-0.425,0-0.772-0.347-0.772-0.772c0-0.429,0.347-0.776,0.772-0.776H11.285z"/>
			</g>
		</g>
	</g>
	<g class="st22">
		<g id="XMLID_6_">
			<g>
				<polygon class="st25" points="33.981,22.439 35.339,24.811 32.627,24.811 				"/>
				<polygon class="st25" points="31.609,23.739 31.981,24.356 31.72,24.811 30.967,24.811 				"/>
				<path class="st18" d="M31.72,24.811l0.261-0.455l-0.373-0.617l-0.642,1.072H31.72z M35.339,24.811l-1.358-2.373l-1.354,2.373
					H35.339z M33.981,20.853l2.712,4.745h-3.052h-2.368h-1.698l2.033-3.391l0.82,1.366L33.981,20.853z"/>
			</g>
		</g>
	</g>
</g>
</svg>
