<svg id="Layer_1" data-name="Layer 1" xmlns="http://www.w3.org/2000/svg" viewBox="0 0 67.56 71.25"><defs><style>.cls-1{fill:none;stroke:#fff;stroke-miterlimit:10;stroke-width:1.5px;}.cls-2{fill:#fff;}</style></defs><path class="cls-1" d="M29.06,34.52q3.07-1.32,3.07-5.7,0-6.27-7.21-6.27H18a2.49,2.49,0,0,0-1.43.39A1.18,1.18,0,0,0,16,24V47.25a1.23,1.23,0,0,0,.55,1,2.42,2.42,0,0,0,1.47.44h7.59a7.34,7.34,0,0,0,5.22-1.81c1.3-1.2,1.94-3.13,1.94-5.77v-.75a6.52,6.52,0,0,0-.89-3.81A5.94,5.94,0,0,0,29.06,34.52Zm-8.47-7.89h4a2.8,2.8,0,0,1,2.13.79,3.08,3.08,0,0,1,.78,2.2,3.31,3.31,0,0,1-.73,2.25,2.77,2.77,0,0,1-2.14.83h-4Zm7.52,14.08q0,3.88-3.48,3.89h-4V36.35h4.05a3.46,3.46,0,0,1,2.6.89,4,4,0,0,1,.87,2.9Z"/><path class="cls-1" d="M49.14,41.35a7.14,7.14,0,0,0,1.22-.07,3.19,3.19,0,0,0,1-.32,1.71,1.71,0,0,0,.85-1,5,5,0,0,0,.28-1.75,6.2,6.2,0,0,0-2.17-4.83,7.61,7.61,0,0,0-5.23-1.9,8,8,0,0,0-5.57,2.09,6.64,6.64,0,0,0-2.29,5v3A6.54,6.54,0,0,0,39.64,47a9.36,9.36,0,0,0,6.27,2,9.21,9.21,0,0,0,4.49-1c1.2-.65,1.81-1.31,1.81-2a2.32,2.32,0,0,0-.5-1.34,1.52,1.52,0,0,0-1.25-.7,5.43,5.43,0,0,0-1.73.7,6,6,0,0,1-2.68.7,4.68,4.68,0,0,1-3.06-1,3.08,3.08,0,0,1-1.14-2.49v-.57Zm-7.27-3.62a2.26,2.26,0,0,1,.93-1.88,3.75,3.75,0,0,1,4.42,0,2.33,2.33,0,0,1,.92,1.9.93.93,0,0,1-.23.7,1.36,1.36,0,0,1-.81.18H41.87Z"/><path class="cls-1" d="M50.71,25.85H39.13a1.85,1.85,0,0,0-.23,3.7H50.71a1.85,1.85,0,1,0,.23-3.7A.89.89,0,0,0,50.71,25.85Z"/><path class="cls-2" d="M48,66.43h3.71A12.85,12.85,0,0,0,64.59,53.59V17.67A12.85,12.85,0,0,0,51.75,4.82H15.83A12.85,12.85,0,0,0,3,17.67V53.59A12.85,12.85,0,0,0,15.83,66.43h20.8a1.43,1.43,0,1,0,0-2.85H15.83a10,10,0,0,1-10-10V17.67a10,10,0,0,1,10-10H51.75a10,10,0,0,1,10,10V53.59a10,10,0,0,1-10,10H48a1.42,1.42,0,1,0,0,2.84Z"/></svg>