<svg id="Layer_1" data-name="Layer 1" xmlns="http://www.w3.org/2000/svg" viewBox="0 0 67.56 71.25"><defs><style>.cls-1{fill:#fff;}</style></defs><path class="cls-1" d="M48,66.43h3.71A12.85,12.85,0,0,0,64.59,53.59V17.67A12.85,12.85,0,0,0,51.75,4.82H15.83A12.85,12.85,0,0,0,3,17.67V53.59A12.85,12.85,0,0,0,15.83,66.43h20.8a1.43,1.43,0,1,0,0-2.85H15.83a10,10,0,0,1-10-10V17.67a10,10,0,0,1,10-10H51.75a10,10,0,0,1,10,10V53.59a10,10,0,0,1-10,10H48a1.42,1.42,0,1,0,0,2.84Z"/><path class="cls-1" d="M49.47,37.62A15.69,15.69,0,1,0,33.78,53.31h0A15.72,15.72,0,0,0,49.47,37.62ZM33.78,50.46A12.84,12.84,0,1,1,46.62,37.62h0A12.85,12.85,0,0,1,33.78,50.46Z"/><path class="cls-1" d="M34,28.22a9.24,9.24,0,1,0,9.23,9.23A9.24,9.24,0,0,0,34,28.22Zm0,15.83a6.6,6.6,0,1,1,6.59-6.6h0A6.59,6.59,0,0,1,34,44Z"/><path class="cls-1" d="M57.45,17.67a5.71,5.71,0,1,0-5.71,5.7h0A5.7,5.7,0,0,0,57.45,17.67Zm-8.56,0a2.86,2.86,0,1,1,2.87,2.85h0A2.88,2.88,0,0,1,48.89,17.67Z"/></svg>