<svg id="Layer_1" data-name="Layer 1" xmlns="http://www.w3.org/2000/svg" viewBox="0 0 67.56 71.25"><defs><style>.cls-1{fill:#fff;}</style></defs><path class="cls-1" d="M51.71,52.55h0a1,1,0,0,1-1,1H43.65a1,1,0,0,1-1-1V39.47a2.48,2.48,0,0,0-.07-.61,2.92,2.92,0,0,0-3.48-2.26,3,3,0,0,0-2.31,3v13a1,1,0,0,1-1,1H28.73a1,1,0,0,1-.95-1V29.88h0a1,1,0,0,1,1-1H35.5a1,1,0,0,1,1,1v.62a9.52,9.52,0,0,1,5.86-2.06,9.42,9.42,0,0,1,9.39,9.42ZM49.81,38.1a7.7,7.7,0,0,0-3.63-6.65,7.48,7.48,0,0,0-9.89,2,1,1,0,0,1-1.75-.57v-2H29.71V51.57h5.17V39.45a5.84,5.84,0,0,1,0-.73,4.88,4.88,0,0,1,5.56-4.08,5,5,0,0,1,4.13,5v12H49.8Z"/><path class="cls-1" d="M21.92,17.83a5.11,5.11,0,1,1-6,6,5.18,5.18,0,0,1,0-2A5.11,5.11,0,0,1,21.92,17.83ZM24,23.57a3.17,3.17,0,1,0-2.36,2.36A3.1,3.1,0,0,0,24,23.57Z"/><path class="cls-1" d="M25.45,29.89V52.54a1,1,0,0,1-1,1H17.37a1,1,0,0,1-1-1V29.88a1,1,0,0,1,1-1h7.12A1,1,0,0,1,25.45,29.89ZM23.51,51.57V30.86H18.34V51.57Z"/><path class="cls-1" d="M48,66.43h3.71A12.85,12.85,0,0,0,64.59,53.59V17.67A12.85,12.85,0,0,0,51.75,4.82H15.83A12.85,12.85,0,0,0,3,17.67V53.59A12.85,12.85,0,0,0,15.83,66.43h20.8a1.43,1.43,0,1,0,0-2.85H15.83a10,10,0,0,1-10-10V17.67a10,10,0,0,1,10-10H51.75a10,10,0,0,1,10,10V53.59a10,10,0,0,1-10,10H48a1.42,1.42,0,1,0,0,2.84Z"/></svg>