<?xml version="1.0" encoding="utf-8"?>
<!-- Generator: Adobe Illustrator 24.2.1, SVG Export Plug-In . SVG Version: 6.00 Build 0)  -->
<svg version="1.1" id="Capa_1" xmlns="http://www.w3.org/2000/svg" xmlns:xlink="http://www.w3.org/1999/xlink" x="0px" y="0px"
	 viewBox="0 0 30 30" style="enable-background:new 0 0 30 30;" xml:space="preserve">
<style type="text/css">
	.st0{opacity:0.6;}
	.st1{clip-path:url(#SVGID_2_);fill:none;stroke:#23334B;stroke-width:0.75;stroke-miterlimit:10;}
	.st2{clip-path:url(#SVGID_4_);fill:none;stroke:#23334B;stroke-width:0.75;stroke-miterlimit:10;}
	.st3{clip-path:url(#SVGID_6_);fill:none;stroke:#23334B;stroke-width:0.75;stroke-miterlimit:10;}
	.st4{clip-path:url(#SVGID_8_);fill:none;stroke:#23334B;stroke-width:0.75;stroke-miterlimit:10;}
	.st5{clip-path:url(#SVGID_10_);fill:#23334B;}
	.st6{clip-path:url(#SVGID_12_);fill:none;stroke:#23334B;stroke-width:0.75;stroke-miterlimit:10;}
	.st7{clip-path:url(#SVGID_14_);fill:#23334B;}
	.st8{clip-path:url(#SVGID_16_);fill:none;stroke:#23334B;stroke-width:0.75;stroke-miterlimit:10;}
	.st9{clip-path:url(#SVGID_18_);fill:#23334B;}
	.st10{clip-path:url(#SVGID_20_);fill:none;stroke:#23334B;stroke-width:0.75;stroke-miterlimit:10;}
	.st11{clip-path:url(#SVGID_22_);fill:#23334B;}
	.st12{clip-path:url(#SVGID_24_);fill:none;stroke:#23334B;stroke-width:0.75;stroke-miterlimit:10;}
	.st13{clip-path:url(#SVGID_26_);fill:#23334B;}
	.st14{clip-path:url(#SVGID_26_);fill:none;stroke:#23334B;stroke-width:0.25;stroke-miterlimit:10;}
	.st15{clip-path:url(#SVGID_28_);fill:none;stroke:#23334B;stroke-width:0.75;stroke-miterlimit:10;}
	.st16{clip-path:url(#SVGID_30_);fill:#23334B;}
	.st17{opacity:0.5;}
	.st18{fill:#23334B;}
	.st19{clip-path:url(#SVGID_32_);fill:none;stroke:#23334B;stroke-width:0.75;stroke-miterlimit:10;}
</style>
<g>
	<g class="st0">
		<g>
			<defs>
				<rect id="SVGID_19_" x="7.528" y="7.528" width="14.943" height="14.944"/>
			</defs>
			<clipPath id="SVGID_2_">
				<use xlink:href="#SVGID_19_"  style="overflow:visible;"/>
			</clipPath>
			<rect x="8.053" y="8.053" class="st1" width="13.892" height="13.894"/>
		</g>
	</g>
	<g class="st0">
		<g>
			<defs>
				<rect id="SVGID_21_" x="8.678" y="10.876" width="12.05" height="7.82"/>
			</defs>
			<clipPath id="SVGID_4_">
				<use xlink:href="#SVGID_21_"  style="overflow:visible;"/>
			</clipPath>
			<path style="clip-path:url(#SVGID_4_);fill:#23334B;" d="M15.898,18.469h-1.581l-0.629-1.725h-2.877l-0.594,1.725H8.677
				l2.803-7.594h1.537L15.898,18.469z M13.223,15.465l-0.991-2.818l-0.972,2.818H13.223z"/>
			<path style="clip-path:url(#SVGID_4_);fill:#23334B;" d="M19.278,16.822l1.375,0.244c-0.178,0.531-0.456,0.937-0.837,1.214
				c-0.381,0.279-0.858,0.417-1.431,0.417c-0.907,0-1.578-0.312-2.013-0.938c-0.343-0.5-0.515-1.133-0.515-1.896
				c0-0.911,0.227-1.625,0.678-2.142c0.452-0.517,1.022-0.774,1.714-0.774c0.776,0,1.387,0.27,1.835,0.811
				c0.448,0.54,0.662,1.368,0.644,2.484h-3.457c0.01,0.431,0.12,0.769,0.333,1.008c0.213,0.239,0.477,0.36,0.795,0.36
				c0.217,0,0.398-0.063,0.546-0.188C19.092,17.298,19.203,17.098,19.278,16.822 M19.357,15.35c-0.01-0.421-0.113-0.742-0.309-0.962
				c-0.196-0.218-0.435-0.328-0.717-0.328c-0.301,0-0.549,0.115-0.746,0.346c-0.196,0.232-0.293,0.546-0.29,0.944H19.357z"/>
		</g>
	</g>
</g>
</svg>
