<?xml version="1.0" encoding="utf-8"?>
<!-- Generator: Adobe Illustrator 24.2.1, SVG Export Plug-In . SVG Version: 6.00 Build 0)  -->
<svg version="1.1" id="Capa_1" xmlns="http://www.w3.org/2000/svg" xmlns:xlink="http://www.w3.org/1999/xlink" x="0px" y="0px"
	 viewBox="0 0 30 30" style="enable-background:new 0 0 30 30;" xml:space="preserve">
<style type="text/css">
	.st0{opacity:0.6;}
	.st1{clip-path:url(#SVGID_2_);fill:none;stroke:#23334B;stroke-width:0.75;stroke-miterlimit:10;}
	.st2{clip-path:url(#SVGID_4_);fill:none;stroke:#23334B;stroke-width:0.75;stroke-miterlimit:10;}
	.st3{clip-path:url(#SVGID_6_);fill:none;stroke:#23334B;stroke-width:0.75;stroke-miterlimit:10;}
	.st4{clip-path:url(#SVGID_8_);fill:none;stroke:#23334B;stroke-width:0.75;stroke-miterlimit:10;}
	.st5{clip-path:url(#SVGID_10_);fill:#23334B;}
	.st6{clip-path:url(#SVGID_12_);fill:none;stroke:#23334B;stroke-width:0.75;stroke-miterlimit:10;}
	.st7{clip-path:url(#SVGID_14_);fill:#23334B;}
	.st8{clip-path:url(#SVGID_16_);fill:none;stroke:#23334B;stroke-width:0.75;stroke-miterlimit:10;}
	.st9{clip-path:url(#SVGID_18_);fill:#23334B;}
	.st10{clip-path:url(#SVGID_20_);fill:none;stroke:#23334B;stroke-width:0.75;stroke-miterlimit:10;}
	.st11{clip-path:url(#SVGID_22_);fill:#23334B;}
	.st12{clip-path:url(#SVGID_24_);fill:none;stroke:#23334B;stroke-width:0.75;stroke-miterlimit:10;}
	.st13{clip-path:url(#SVGID_26_);fill:#23334B;}
	.st14{clip-path:url(#SVGID_26_);fill:none;stroke:#23334B;stroke-width:0.25;stroke-miterlimit:10;}
	.st15{clip-path:url(#SVGID_28_);fill:none;stroke:#23334B;stroke-width:0.75;stroke-miterlimit:10;}
	.st16{clip-path:url(#SVGID_30_);fill:#23334B;}
	.st17{opacity:0.5;}
	.st18{fill:#23334B;}
	.st19{clip-path:url(#SVGID_32_);fill:none;stroke:#23334B;stroke-width:0.75;stroke-miterlimit:10;}
	.st20{opacity:0.6;fill:#23334B;}
	.st21{opacity:0.6;fill:none;stroke:#23334B;stroke-width:0.75;stroke-miterlimit:10;}
</style>
<g class="st0">
	<g>
		<defs>
			<rect id="SVGID_31_" x="-42.991" y="7.009" width="15.982" height="15.981"/>
		</defs>
		<clipPath id="SVGID_2_">
			<use xlink:href="#SVGID_31_"  style="overflow:visible;"/>
		</clipPath>
		<path class="st1" d="M9.034,17.997h-9.349c-1.534,0-2.792-1.256-2.792-2.792V5.857c0-1.536,1.257-2.793,2.792-2.793h9.239
			c1.596,0,2.902,1.306,2.902,2.902v9.239C11.826,16.741,10.57,17.997,9.034,17.997z"/>
	</g>
</g>
<g>
	<path class="st20" d="M19.398,12.595c0.143-0.63,0.139-1.625-0.204-2.078c-0.153-0.203-0.368-0.308-0.605-0.297
		c-0.721,0.033-1.276,0.393-1.882,0.758c-0.554-0.14-1.113-0.214-1.665-0.221c-0.004,0-0.007,0-0.011,0
		c-0.552,0.007-1.112,0.081-1.665,0.221c-0.6-0.362-1.158-0.725-1.882-0.758c-0.236-0.011-0.451,0.095-0.605,0.297
		c-0.343,0.452-0.347,1.445-0.204,2.078c-0.786,1.036-1,2.532-0.528,3.784c0.447,1.185,1.444,2.02,2.843,2.398
		c-0.114,0.204-0.21,0.462-0.245,0.821c-0.57,0.199-1.032,0.068-1.345-0.46c-0.366-0.616-0.987-1.114-1.699-1.052
		c-0.254,0.022-0.442,0.245-0.42,0.499c0.022,0.254,0.246,0.442,0.499,0.42c0.33-0.029,0.655,0.315,0.827,0.604
		c0.493,0.83,1.291,1.127,2.124,0.949v1.183c0,0.023-0.002,0.046-0.005,0.068c-0.006-0.002-0.012-0.005-0.018-0.008v0.167
		c0.305,0.013,0.61,0.029,0.915,0.037c0.016-0.085,0.03-0.172,0.03-0.261v-1.837c-0.001-0.672,0.233-0.777,0.501-1.186
		c0.086-0.131,0.099-0.298,0.035-0.441c-0.064-0.143-0.197-0.244-0.353-0.267c-1.829-0.273-2.547-1.216-2.827-1.959
		c-0.373-0.989-0.176-2.223,0.48-3.001c0.1-0.117,0.189-0.328,0.117-0.539c-0.14-0.423-0.118-1.098-0.031-1.359
		c0.397,0.058,0.768,0.283,1.191,0.54c0.245,0.149,0.419,0.286,0.715,0.206c0.517-0.14,1.04-0.215,1.553-0.222
		c0.513,0.007,1.036,0.081,1.554,0.222c0.294,0.079,0.474-0.061,0.714-0.207c0.423-0.257,0.794-0.482,1.192-0.54
		c0.087,0.261,0.109,0.936-0.03,1.355c-0.073,0.214,0.016,0.425,0.116,0.543c0.656,0.778,0.854,2.012,0.48,3.001
		c-0.28,0.743-0.998,1.686-2.827,1.958c-0.155,0.023-0.288,0.124-0.353,0.267c-0.064,0.144-0.051,0.31,0.035,0.441
		c0.268,0.409,0.503,0.513,0.502,1.187v1.838c0.001,0.097,0.014,0.192,0.033,0.284c0.3-0.001,0.601,0,0.901-0.001v-0.223
		c-0.002,0.001-0.005,0.002-0.007,0.003c-0.003-0.021-0.005-0.043-0.005-0.065v-1.835c0.001-0.529-0.115-0.873-0.26-1.131
		c1.399-0.378,2.396-1.213,2.843-2.398C20.398,15.127,20.184,13.631,19.398,12.595z"/>
	<path class="st21" d="M19.675,22.466h-9.349c-1.534,0-2.792-1.256-2.792-2.792v-9.348c0-1.536,1.257-2.793,2.792-2.793h9.239
		c1.596,0,2.902,1.306,2.902,2.902v9.239C22.466,21.21,21.21,22.466,19.675,22.466z"/>
</g>
</svg>
