<?xml version="1.0" encoding="utf-8"?>
<!-- Generator: Adobe Illustrator 24.2.1, SVG Export Plug-In . SVG Version: 6.00 Build 0)  -->
<svg version="1.1" id="Capa_1" xmlns="http://www.w3.org/2000/svg" xmlns:xlink="http://www.w3.org/1999/xlink" x="0px" y="0px"
	 viewBox="0 0 30 30" style="enable-background:new 0 0 30 30;" xml:space="preserve">
<style type="text/css">
	.st0{opacity:0.6;}
	.st1{clip-path:url(#SVGID_2_);fill:none;stroke:#23334B;stroke-width:0.75;stroke-miterlimit:10;}
	.st2{clip-path:url(#SVGID_4_);fill:none;stroke:#23334B;stroke-width:0.75;stroke-miterlimit:10;}
	.st3{clip-path:url(#SVGID_6_);fill:none;stroke:#23334B;stroke-width:0.75;stroke-miterlimit:10;}
	.st4{clip-path:url(#SVGID_8_);fill:none;stroke:#23334B;stroke-width:0.75;stroke-miterlimit:10;}
	.st5{clip-path:url(#SVGID_10_);fill:#23334B;}
	.st6{clip-path:url(#SVGID_12_);fill:none;stroke:#23334B;stroke-width:0.75;stroke-miterlimit:10;}
	.st7{clip-path:url(#SVGID_14_);fill:#23334B;}
	.st8{clip-path:url(#SVGID_16_);fill:none;stroke:#23334B;stroke-width:0.75;stroke-miterlimit:10;}
	.st9{clip-path:url(#SVGID_18_);fill:#23334B;}
	.st10{clip-path:url(#SVGID_20_);fill:none;stroke:#23334B;stroke-width:0.75;stroke-miterlimit:10;}
	.st11{clip-path:url(#SVGID_22_);fill:#23334B;}
	.st12{clip-path:url(#SVGID_24_);fill:none;stroke:#23334B;stroke-width:0.75;stroke-miterlimit:10;}
	.st13{clip-path:url(#SVGID_26_);fill:#23334B;}
	.st14{clip-path:url(#SVGID_26_);fill:none;stroke:#23334B;stroke-width:0.25;stroke-miterlimit:10;}
	.st15{clip-path:url(#SVGID_28_);fill:none;stroke:#23334B;stroke-width:0.75;stroke-miterlimit:10;}
	.st16{clip-path:url(#SVGID_30_);fill:#23334B;}
	.st17{opacity:0.5;}
	.st18{fill:#23334B;}
	.st19{clip-path:url(#SVGID_32_);fill:none;stroke:#23334B;stroke-width:0.75;stroke-miterlimit:10;}
</style>
<g class="st0">
	<g>
		<defs>
			<rect id="SVGID_1_" x="7.54" y="6.606" width="14.92" height="16.789"/>
		</defs>
		<clipPath id="SVGID_2_">
			<use xlink:href="#SVGID_1_"  style="overflow:visible;"/>
		</clipPath>
		<path class="st1" d="M8.306,7.13c-0.146,0-0.253,0.118-0.241,0.262l1.219,13.679c0.014,0.144,0.137,0.294,0.277,0.333l5.176,1.436
			c0.139,0.039,0.367,0.039,0.507,0l5.191-1.439c0.139-0.039,0.263-0.188,0.276-0.332l1.222-13.678
			c0.013-0.144-0.095-0.262-0.239-0.262H8.306z M19.337,10.267c-0.011,0.129-0.031,0.351-0.045,0.496l-0.032,0.358
			c-0.013,0.144-0.031,0.35-0.041,0.458c-0.01,0.108-0.02,0.196-0.021,0.196h-0.266h-3.669h-0.266h-0.266h-1.932
			c-0.144,0-0.253,0.119-0.239,0.262l0.112,1.261c0.014,0.144,0.141,0.262,0.287,0.262h1.772h0.266h0.266h3.048h0.498
			c0.127,0,0.224,0.105,0.213,0.234c-0.013,0.127-0.032,0.351-0.045,0.496l-0.363,4.061c-0.013,0.144-0.029,0.329-0.036,0.409
			c-0.007,0.083-0.127,0.179-0.266,0.218l-3.059,0.848c-0.139,0.038-0.255,0.07-0.258,0.07c-0.001,0-0.118-0.031-0.258-0.069
			l-3.06-0.85c-0.14-0.039-0.265-0.189-0.277-0.333l-0.197-2.211c-0.013-0.144,0.095-0.263,0.241-0.263h0.279h0.526h0.416
			c0.146,0,0.274,0.119,0.287,0.263l0.077,0.865c0.013,0.144,0.139,0.293,0.277,0.33l1.432,0.386
			c0.14,0.038,0.255,0.069,0.255,0.069c0.001,0,0.116-0.031,0.256-0.069l1.434-0.388c0.14-0.038,0.265-0.186,0.277-0.33l0.157-1.735
			c0.013-0.144-0.095-0.262-0.241-0.262h-1.613h-0.266h-0.266h-3.366c-0.144,0-0.273-0.118-0.286-0.262l-0.382-4.277
			c-0.013-0.144-0.034-0.367-0.045-0.496c-0.011-0.129,0.098-0.234,0.242-0.234h3.836h0.266h0.266h3.832
			C19.239,10.034,19.348,10.139,19.337,10.267z"/>
	</g>
</g>
</svg>
