<?xml version="1.0" encoding="utf-8"?>
<!-- Generator: Adobe Illustrator 24.2.1, SVG Export Plug-In . SVG Version: 6.00 Build 0)  -->
<svg version="1.1" id="Capa_1" xmlns="http://www.w3.org/2000/svg" xmlns:xlink="http://www.w3.org/1999/xlink" x="0px" y="0px"
	 viewBox="0 0 30 30" style="enable-background:new 0 0 30 30;" xml:space="preserve">
<style type="text/css">
	.st0{opacity:0.6;}
	.st1{clip-path:url(#SVGID_2_);fill:none;stroke:#23334B;stroke-width:0.75;stroke-miterlimit:10;}
	.st2{clip-path:url(#SVGID_4_);fill:none;stroke:#23334B;stroke-width:0.75;stroke-miterlimit:10;}
	.st3{clip-path:url(#SVGID_6_);fill:none;stroke:#23334B;stroke-width:0.75;stroke-miterlimit:10;}
	.st4{clip-path:url(#SVGID_8_);fill:none;stroke:#23334B;stroke-width:0.75;stroke-miterlimit:10;}
	.st5{clip-path:url(#SVGID_10_);fill:#23334B;}
	.st6{clip-path:url(#SVGID_12_);fill:none;stroke:#23334B;stroke-width:0.75;stroke-miterlimit:10;}
	.st7{clip-path:url(#SVGID_14_);fill:#23334B;}
	.st8{clip-path:url(#SVGID_16_);fill:none;stroke:#23334B;stroke-width:0.75;stroke-miterlimit:10;}
	.st9{clip-path:url(#SVGID_18_);fill:#23334B;}
	.st10{clip-path:url(#SVGID_20_);fill:none;stroke:#23334B;stroke-width:0.75;stroke-miterlimit:10;}
	.st11{clip-path:url(#SVGID_22_);fill:#23334B;}
	.st12{clip-path:url(#SVGID_24_);fill:none;stroke:#23334B;stroke-width:0.75;stroke-miterlimit:10;}
	.st13{clip-path:url(#SVGID_26_);fill:#23334B;}
	.st14{clip-path:url(#SVGID_26_);fill:none;stroke:#23334B;stroke-width:0.25;stroke-miterlimit:10;}
	.st15{clip-path:url(#SVGID_28_);fill:none;stroke:#23334B;stroke-width:0.75;stroke-miterlimit:10;}
	.st16{clip-path:url(#SVGID_30_);fill:#23334B;}
	.st17{opacity:0.5;}
	.st18{fill:#23334B;}
	.st19{clip-path:url(#SVGID_32_);fill:none;stroke:#23334B;stroke-width:0.75;stroke-miterlimit:10;}
</style>
<g>
	<g class="st0">
		<g>
			<defs>
				<rect id="SVGID_15_" x="7.528" y="7.555" width="14.943" height="14.889"/>
			</defs>
			<clipPath id="SVGID_2_">
				<use xlink:href="#SVGID_15_"  style="overflow:visible;"/>
			</clipPath>
			<rect x="8.053" y="8.08" class="st1" width="13.892" height="13.838"/>
		</g>
	</g>
	<g class="st0">
		<g>
			<defs>
				<rect id="SVGID_17_" x="10.868" y="10.827" width="7.921" height="7.867"/>
			</defs>
			<clipPath id="SVGID_4_">
				<use xlink:href="#SVGID_17_"  style="overflow:visible;"/>
			</clipPath>
			<rect x="10.867" y="11.218" style="clip-path:url(#SVGID_4_);fill:#23334B;" width="1.669" height="7.353"/>
			<path style="clip-path:url(#SVGID_4_);fill:#23334B;" d="M15.551,18.694c0.685,0,1.331-0.308,1.669-0.906h0.024l0.074,0.783
				h1.471c-0.018-0.357-0.043-0.993-0.043-1.593v-6.15h-1.659v2.891h-0.02c-0.239-0.371-0.752-0.601-1.408-0.601
				c-1.277,0-2.402,1.036-2.387,2.838C13.272,17.613,14.284,18.694,15.551,18.694 M16.094,14.384c0.514,0,0.871,0.372,0.969,0.816
				c0.015,0.088,0.024,0.21,0.024,0.298v0.694c0,0.143-0.008,0.265-0.043,0.382c-0.098,0.47-0.48,0.797-0.959,0.797
				c-0.69,0-1.134-0.567-1.134-1.471C14.95,15.059,15.339,14.384,16.094,14.384"/>
		</g>
	</g>
</g>
</svg>
