<?xml version="1.0" encoding="utf-8"?>
<!-- Generator: Adobe Illustrator 24.2.1, SVG Export Plug-In . SVG Version: 6.00 Build 0)  -->
<svg version="1.1" id="Capa_1" xmlns="http://www.w3.org/2000/svg" xmlns:xlink="http://www.w3.org/1999/xlink" x="0px" y="0px"
	 viewBox="0 0 212.645 30" style="enable-background:new 0 0 212.645 30;" xml:space="preserve">
<style type="text/css">
	.st0{opacity:0.6;}
	.st1{clip-path:url(#SVGID_2_);fill:none;stroke:#23334B;stroke-width:0.75;stroke-miterlimit:10;}
	.st2{clip-path:url(#SVGID_4_);fill:none;stroke:#23334B;stroke-width:0.75;stroke-miterlimit:10;}
	.st3{clip-path:url(#SVGID_6_);fill:none;stroke:#23334B;stroke-width:0.75;stroke-miterlimit:10;}
	.st4{clip-path:url(#SVGID_8_);fill:none;stroke:#23334B;stroke-width:0.75;stroke-miterlimit:10;}
	.st5{clip-path:url(#SVGID_10_);fill:#23334B;}
	.st6{clip-path:url(#SVGID_12_);fill:none;stroke:#23334B;stroke-width:0.75;stroke-miterlimit:10;}
	.st7{clip-path:url(#SVGID_14_);fill:#23334B;}
	.st8{clip-path:url(#SVGID_16_);fill:none;stroke:#23334B;stroke-width:0.75;stroke-miterlimit:10;}
	.st9{clip-path:url(#SVGID_18_);fill:#23334B;}
	.st10{clip-path:url(#SVGID_20_);fill:none;stroke:#23334B;stroke-width:0.75;stroke-miterlimit:10;}
	.st11{clip-path:url(#SVGID_22_);fill:#23334B;}
	.st12{clip-path:url(#SVGID_24_);fill:none;stroke:#23334B;stroke-width:0.75;stroke-miterlimit:10;}
	.st13{clip-path:url(#SVGID_26_);fill:#23334B;}
	.st14{clip-path:url(#SVGID_26_);fill:none;stroke:#23334B;stroke-width:0.25;stroke-miterlimit:10;}
	.st15{clip-path:url(#SVGID_28_);fill:none;stroke:#23334B;stroke-width:0.75;stroke-miterlimit:10;}
	.st16{clip-path:url(#SVGID_30_);fill:#23334B;}
	.st17{opacity:0.5;}
	.st18{fill:#23334B;}
	.st19{clip-path:url(#SVGID_32_);fill:none;stroke:#23334B;stroke-width:0.75;stroke-miterlimit:10;}
</style>
<g class="st17">
	<path class="st18" d="M8.348,17.952c0.162,0.08,0.36,0.016,0.442-0.147c0.082-0.163,0.018-0.362-0.144-0.445
		c-0.048-0.024-1.182-0.628-1.48-2.408c-0.023-0.146-0.142-0.259-0.291-0.274c-0.151-0.018-0.287,0.068-0.342,0.206
		c-0.719,1.797,0.636,3.862,0.694,3.949c0.063,0.096,0.169,0.147,0.275,0.147c0.064,0,0.127-0.018,0.184-0.055
		c0.152-0.102,0.193-0.307,0.093-0.459c-0.009-0.013-0.57-0.87-0.743-1.88C7.581,17.557,8.305,17.931,8.348,17.952"/>
	<path class="st18" d="M9.885,18.642c0.18-0.036,0.296-0.21,0.261-0.39c-0.036-0.178-0.209-0.296-0.391-0.259
		c-0.664,0.132-1.922,0.856-1.922,2.642c0,1.296,0.272,2.195,0.482,2.695c-0.725,0.141-1.144,0.597-1.144,1.279
		c0,0.767,0.696,1.325,1.656,1.325h0.331c0.549,0,0.887-0.412,0.923-0.459c0.113-0.144,0.087-0.352-0.057-0.465
		c-0.144-0.112-0.352-0.086-0.464,0.058c-0.002,0.002-0.17,0.204-0.402,0.204H8.827c-0.494,0-0.994-0.228-0.994-0.663
		c0-0.163,0-0.662,0.994-0.662c0.121,0,0.233-0.068,0.29-0.174c0.059-0.108,0.053-0.237-0.013-0.339
		c-0.007-0.01-0.609-0.953-0.609-2.799C8.496,18.956,9.83,18.654,9.885,18.642"/>
	<path class="st18" d="M19.273,23.331c0.21-0.5,0.481-1.399,0.481-2.695c0-1.786-1.257-2.51-1.921-2.643
		c-0.18-0.035-0.355,0.08-0.39,0.26c-0.036,0.18,0.08,0.353,0.26,0.39c0.056,0.011,1.389,0.297,1.389,1.993
		c0,1.845-0.601,2.789-0.607,2.797c-0.067,0.101-0.074,0.232-0.017,0.339c0.058,0.108,0.17,0.175,0.292,0.175
		c0.994,0,0.994,0.499,0.994,0.662c0,0.436-0.5,0.663-0.994,0.663h-0.331c-0.228,0-0.396-0.198-0.403-0.206
		c-0.112-0.141-0.318-0.167-0.462-0.055c-0.145,0.113-0.17,0.321-0.058,0.466c0.037,0.045,0.374,0.458,0.923,0.458h0.331
		c0.96,0,1.657-0.558,1.657-1.325C20.417,23.928,19.998,23.472,19.273,23.331"/>
	<path class="st18" d="M15.837,23.31l0.602-3.613c0.03-0.181-0.092-0.351-0.273-0.381c-0.181-0.03-0.35,0.092-0.381,0.271
		l-0.616,3.698h-0.051c-0.182,0-0.331,0.148-0.331,0.331c0,0.182,0.149,0.331,0.331,0.331h0.331c0.994,0,0.994,0.499,0.994,0.662
		c0,0.435-0.5,0.663-0.994,0.663h-0.331c-0.547,0-0.993-0.446-0.993-0.994v-4.636c0-0.183-0.147-0.331-0.331-0.331
		c-0.184,0-0.331,0.148-0.331,0.331v4.636c0,0.548-0.445,0.994-0.993,0.994h-0.331c-0.494,0-0.994-0.228-0.994-0.663
		c0-0.163,0-0.662,0.994-0.662h0.331c0.182,0,0.331-0.149,0.331-0.331c0-0.183-0.149-0.331-0.331-0.331h-0.051l-0.616-3.698
		c-0.029-0.179-0.2-0.301-0.381-0.271c-0.181,0.03-0.303,0.2-0.272,0.381l0.602,3.613c-0.803,0.11-1.269,0.579-1.269,1.299
		c0,0.767,0.696,1.325,1.656,1.325h0.331c0.541,0,1.022-0.261,1.324-0.663c0.303,0.402,0.783,0.663,1.324,0.663h0.331
		c0.96,0,1.657-0.558,1.657-1.325C17.106,23.889,16.639,23.42,15.837,23.31"/>
	<path class="st18" d="M22.038,8.897c-0.728-1.456-2.481-2.832-3.608-2.832c-0.639,0-1.739,0.991-2.292,1.532
		c-0.639-0.548-1.417-0.87-2.344-0.87c-0.926,0-1.705,0.322-2.343,0.87c-0.553-0.541-1.654-1.532-2.292-1.532
		c-1.127,0-2.88,1.376-3.608,2.832c-0.22,0.438-0.366,1.03-0.366,1.472c0,0.913,0.742,1.657,1.655,1.657
		c0.824,0,1.192-0.541,1.487-0.976c0.036-0.053,0.072-0.106,0.113-0.165l1.325-1.987C9.867,8.745,9.826,8.54,9.673,8.439
		C9.52,8.336,9.315,8.378,9.214,8.531l-1.32,1.979c-0.039,0.056-0.077,0.111-0.115,0.167c-0.298,0.438-0.489,0.687-0.939,0.687
		c-0.548,0-0.993-0.447-0.993-0.995c0-0.343,0.121-0.827,0.296-1.175c0.652-1.306,2.229-2.467,3.016-2.467
		c0.282,0,1.123,0.658,1.824,1.34c-1.244,1.446-1.824,3.868-1.824,6.277c0,3.057,1.342,4.305,4.635,4.305s4.636-1.248,4.636-4.305
		c0-2.41-0.58-4.831-1.824-6.277c0.701-0.682,1.542-1.34,1.824-1.34c0.786,0,2.363,1.161,3.016,2.467
		c0.175,0.348,0.296,0.832,0.296,1.175c0,0.548-0.446,0.995-0.994,0.995c-0.466,0-0.65-0.246-0.96-0.715l-1.414-2.118
		c-0.1-0.153-0.306-0.195-0.459-0.092c-0.152,0.101-0.193,0.306-0.091,0.459l1.411,2.117c0.314,0.474,0.669,1.011,1.513,1.011
		c0.914,0,1.656-0.744,1.656-1.657C22.404,9.927,22.257,9.335,22.038,8.897 M17.768,14.344c0,2.689-1.04,3.642-3.974,3.642
		c-2.933,0-3.973-0.953-3.973-3.642c0-3.462,1.228-6.954,3.973-6.954C16.539,7.39,17.768,10.882,17.768,14.344"/>
	<path class="st18" d="M15.486,15.848c-0.056,0.11-0.277,0.15-0.368,0.151c-0.387,0-0.788-0.33-0.932-0.71
		c0.544-0.123,0.932-0.492,0.932-0.945c0-0.558-0.581-0.994-1.324-0.994c-0.743,0-1.324,0.436-1.324,0.994
		c0,0.453,0.388,0.822,0.932,0.945c-0.144,0.38-0.545,0.71-0.93,0.71c-0.095-0.001-0.312-0.041-0.372-0.155
		c-0.086-0.161-0.286-0.223-0.449-0.137c-0.161,0.086-0.222,0.286-0.136,0.447c0.261,0.494,0.884,0.507,0.955,0.507
		c0.513,0,1.012-0.293,1.324-0.714c0.312,0.421,0.811,0.714,1.324,0.714c0.072,0,0.701-0.014,0.957-0.51
		c0.084-0.163,0.02-0.363-0.142-0.446C15.77,15.621,15.57,15.685,15.486,15.848 M13.794,14.675c-0.397,0-0.662-0.199-0.662-0.331
		s0.265-0.331,0.662-0.331c0.404,0,0.662,0.195,0.662,0.331C14.456,14.479,14.198,14.675,13.794,14.675"/>
	<path class="st18" d="M15.284,12.026c0.273,0,0.496-0.223,0.496-0.497c0-0.274-0.223-0.496-0.496-0.496
		c-0.273,0-0.497,0.222-0.497,0.496C14.787,11.803,15.011,12.026,15.284,12.026"/>
	<path class="st18" d="M12.304,12.026c0.273,0,0.497-0.223,0.497-0.497c0-0.274-0.224-0.496-0.497-0.496
		c-0.273,0-0.496,0.222-0.496,0.496C11.808,11.803,12.031,12.026,12.304,12.026"/>
</g>
<g class="st17">
	<g>
		<path class="st18" d="M206.507,20.021l0.581-0.581c0.367-0.366,0.367-0.961,0-1.328c-0.178-0.178-0.412-0.275-0.664-0.275
			c-0.187,0-0.367,0.055-0.52,0.158l-0.123-0.411l0.629-0.63c0.366-0.367,0.366-0.961,0-1.327c-0.336-0.337-0.868-0.362-1.235-0.079
			l-0.747-2.504c0.299-0.287,0.583-0.566,0.853-0.834c0.774-0.774,1.404-1.595,1.773-2.309c0.624-1.208,0.363-1.853,0.034-2.182
			c-0.328-0.328-0.974-0.59-2.182,0.034c-0.714,0.369-1.534,0.999-2.308,1.774c-0.269,0.269-0.548,0.554-0.835,0.851l-2.503-0.745
			c0.284-0.368,0.257-0.899-0.08-1.237c-0.366-0.366-0.961-0.366-1.328,0l-0.629,0.63l-0.411-0.122
			c0.102-0.153,0.157-0.333,0.157-0.521c0-0.251-0.097-0.487-0.275-0.664c-0.366-0.365-0.961-0.365-1.328,0L194.786,8.3
			l-2.962-0.882c-0.106-0.032-0.221-0.002-0.298,0.075l-0.762,0.762c-0.129,0.128-0.111,0.347,0.035,0.453l7.474,5.471
			c-1.685,1.9-3.308,3.802-4.454,5.162l-2.198-0.846c-0.111-0.042-0.236-0.016-0.319,0.068l-0.904,0.903
			c-0.116,0.118-0.116,0.307,0,0.424l4.518,4.519c0.116,0.115,0.309,0.115,0.424,0l0.904-0.904c0.084-0.083,0.11-0.209,0.068-0.319
			l-0.845-2.199c1.359-1.146,3.261-2.77,5.161-4.455l0.594,0.812c0.105,0.144,0.319,0.163,0.449,0.039
			c0.108-0.102,0.122-0.274,0.035-0.393l-0.628-0.858c0.994-0.888,1.975-1.782,2.865-2.625l2.823,9.474l-0.389,0.389l-3.88-5.299
			c-0.097-0.134-0.285-0.163-0.418-0.066c-0.134,0.099-0.163,0.285-0.065,0.419l4.085,5.582c0.107,0.147,0.325,0.163,0.454,0.036
			l0.762-0.763c0.077-0.078,0.107-0.192,0.076-0.298L206.507,20.021z M198.276,8.82c0.131-0.13,0.35-0.13,0.48,0
			c0.133,0.133,0.133,0.348,0,0.48l-0.14,0.14l-0.74-0.22L198.276,8.82z M195.791,8.143c0.132-0.133,0.348-0.133,0.48,0
			c0.132,0.132,0.132,0.348,0,0.479l-0.092,0.092l-0.74-0.22L195.791,8.143z M191.434,8.432l0.39-0.389l9.475,2.822
			c-0.844,0.891-1.739,1.872-2.625,2.866L191.434,8.432z M191.587,19.126l1.823,0.702c-0.458,0.544-0.809,0.966-1.015,1.215
			l-1.363-1.363L191.587,19.126z M192.82,21.469c1.044-1.26,6.565-7.882,10.201-11.518c0.721-0.722,1.509-1.329,2.16-1.665
			c0.489-0.253,1.143-0.483,1.483-0.143c0.34,0.339,0.109,0.994-0.143,1.482c-0.337,0.651-0.943,1.438-1.665,2.16
			c-3.637,3.637-10.258,9.156-11.518,10.2L192.82,21.469z M195.681,23.221l-0.554,0.554l-1.363-1.363
			c0.25-0.207,0.671-0.558,1.216-1.015L195.681,23.221z M206.184,18.536c0.133-0.133,0.348-0.133,0.48,0
			c0.133,0.132,0.133,0.348,0,0.48l-0.352,0.352l-0.221-0.74L206.184,18.536z M205.507,16.051c0.132-0.133,0.348-0.133,0.48,0
			c0.13,0.13,0.13,0.349,0,0.479l-0.401,0.401l-0.221-0.74L205.507,16.051z"/>
	</g>
</g>
<g class="st17">
	<g>
		<path class="st18" d="M170.305,8.381c-0.098-0.047-0.212-0.047-0.31,0.003l-1.499,0.761l-1.173-2.016
			c-0.402-0.754-1.187-1.221-2.04-1.218h-5.799c-0.867,0.002-1.668,0.456-2.117,1.196l-1.079,1.753
			c-0.099,0.162-0.05,0.374,0.11,0.476l3.827,2.435c0.056,0.036,0.12,0.055,0.186,0.055c0.03,0,0.058-0.004,0.086-0.011
			c0.093-0.024,0.172-0.084,0.218-0.168l1.462-2.629l1.601,3.026l-1.457,0.874c-0.129,0.077-0.194,0.227-0.162,0.373
			c0.032,0.146,0.153,0.255,0.3,0.272l5.179,0.589c0.013,0.001,0.025,0.002,0.039,0.002c0.133,0,0.255-0.076,0.313-0.197
			l2.476-5.111C170.55,8.673,170.478,8.465,170.305,8.381 M160.286,10.986l-3.225-2.053l0.9-1.464c0.322-0.533,0.9-0.86,1.523-0.862
			h1.412l0.862,1.73L160.286,10.986z M167.471,13.432l-3.913-0.444l0.86-0.516c0.157-0.096,0.214-0.298,0.128-0.461l-2.857-5.404
			h3.594c0.604-0.001,1.158,0.334,1.438,0.87l1.339,2.301c0.093,0.158,0.294,0.217,0.458,0.133l0.872-0.441L167.471,13.432z"/>
		<path class="st18" d="M171.938,15.654l-1.124-2.246c-0.086-0.172-0.295-0.241-0.467-0.155c-0.006,0.002-0.013,0.006-0.02,0.01
			l-4.175,2.436c-0.164,0.095-0.221,0.304-0.129,0.47l1.451,2.615h-3.235v-1.392c0-0.192-0.155-0.347-0.348-0.347
			c-0.098,0-0.191,0.041-0.257,0.113l-3.48,3.827c-0.112,0.125-0.12,0.313-0.018,0.446l3.48,4.524
			c0.117,0.151,0.335,0.179,0.487,0.062c0.086-0.065,0.136-0.167,0.136-0.275v-1.044h2.436c0.857,0.021,1.651-0.452,2.04-1.217
			l2.435-4.173l0.724-1.169C172.342,17.382,172.366,16.433,171.938,15.654 M168.109,23.138c-0.267,0.544-0.828,0.882-1.434,0.865
			h-2.784c-0.192,0-0.347,0.155-0.347,0.347v0.369l-2.68-3.481l2.68-2.946v0.839c0,0.193,0.155,0.349,0.347,0.349h6.353
			L168.109,23.138z M171.28,17.774l-0.626,1.009h-2.384l-1.474-2.654l3.56-2.077l0.966,1.928
			C171.634,16.542,171.618,17.227,171.28,17.774"/>
		<path class="st18" d="M159.684,16.203l-2.088-4.523c-0.059-0.13-0.194-0.211-0.337-0.202l-5.567,0.348
			c-0.191,0.012-0.338,0.177-0.325,0.369c0.007,0.112,0.068,0.215,0.164,0.273v0.001l1.72,1.067l-1.148,2.299
			c-0.417,0.757-0.414,1.674,0.006,2.427l1.937,3.343l1.058,1.834c0.454,0.773,1.281,1.25,2.177,1.259h1.392
			c0.192,0,0.347-0.155,0.347-0.348v-4.87c0-0.192-0.155-0.348-0.347-0.348h-2.6l1.735-3.011l1.435,0.553
			c0.18,0.068,0.381-0.021,0.45-0.201C159.726,16.385,159.723,16.288,159.684,16.203 M158.325,19.828v4.175h-1.044
			c-0.648-0.006-1.246-0.352-1.575-0.91l-0.955-1.656l0.985-1.609H158.325z M157.781,15.364c-0.16-0.061-0.341,0.003-0.427,0.151
			l-3.009,5.222l-1.633-2.823c-0.301-0.548-0.296-1.213,0.011-1.758l1.294-2.594c0.081-0.161,0.026-0.357-0.128-0.452l-1.064-0.658
			l4.24-0.264l1.628,3.528L157.781,15.364z"/>
	</g>
</g>
<g class="st17">
	<g>
		<path class="st18" d="M60.155,9.996h-1.412c-0.195,0-0.354,0.159-0.354,0.354v0.352c0-0.195-0.158-0.352-0.353-0.352h-1.059
			c-0.186-0.001-0.341,0.143-0.353,0.329l-0.025,0.377h-0.681V10.35c0-0.195-0.159-0.354-0.354-0.354h-1.412
			c-0.195,0-0.353,0.159-0.353,0.354v2.118c0,0.195,0.158,0.354,0.353,0.354h1.412c0.195,0,0.354-0.159,0.354-0.354v-0.706h0.635
			l-0.193,2.89c-0.031,0.364-0.338,0.643-0.704,0.641h-2.211v-0.151c0-0.136-0.079-0.26-0.201-0.318
			c-0.479-0.223-0.986-0.379-1.507-0.462c-0.057-0.008-0.114-0.002-0.168,0.016c-0.194-0.058-0.394-0.1-0.596-0.125v-0.964
			c0.105-0.053,0.206-0.113,0.304-0.178c1.187-0.83,2.168-1.664,2.168-3.459V9.29C53.444,8.216,53,7.191,52.216,6.455
			c-1.375-1.28-3.467-1.402-4.984-0.292c-1.534-0.276-3.001,0.744-3.277,2.278c-0.03,0.164-0.044,0.33-0.045,0.496v5.298
			c0,0.194,0.158,0.352,0.353,0.352c1.351,0.003,2.65-0.517,3.626-1.45c0.083,0.055,0.17,0.106,0.259,0.152v0.964
			c-0.202,0.024-0.401,0.066-0.596,0.124c-0.053-0.019-0.111-0.025-0.168-0.016c-0.521,0.083-1.028,0.238-1.505,0.462
			c-0.123,0.058-0.203,0.182-0.203,0.318v0.012c-1.335,1.5-2.087,3.429-2.119,5.438c0,0.969,0.046,2.083,0.333,2.825h-0.686V22.71
			c0-0.195-0.157-0.353-0.353-0.353h-1.413c-0.194,0-0.352,0.158-0.352,0.353v2.118c0,0.196,0.158,0.354,0.352,0.354h1.413
			c0.196,0,0.353-0.158,0.353-0.354v-0.706h2.019c-0.396,0.764-0.604,1.612-0.606,2.472h0.706c0.002-0.607,0.122-1.209,0.353-1.77
			v0.004c0,0.196,0.159,0.354,0.353,0.354h1.413c0.195,0,0.353-0.158,0.353-0.354v-1.412h4.421l0.204,0.254
			c0.663,0.831,1.024,1.862,1.025,2.924h0.707c-0.002-1.223-0.418-2.409-1.181-3.365l-0.27-0.337l-0.136-0.407
			c-0.328-0.988-0.297-2.06,0.089-3.027l0.02-0.049c0.438-0.137,0.746-0.532,0.771-0.99v-0.014l3.828-0.821
			c0.65-0.142,1.113-0.717,1.116-1.381v-3.735c0,0.195,0.159,0.354,0.354,0.354h1.412c0.195,0,0.353-0.159,0.353-0.354V10.35
			C60.508,10.155,60.35,9.996,60.155,9.996 M55.211,12.116h-0.706v-1.413h0.706V12.116z M42.498,24.476h-0.706v-1.413h0.706V24.476z
			 M45.234,23.267l0.025,0.15h-0.586c-0.202-0.281-0.41-1.01-0.41-2.826c0.03-1.556,0.522-3.067,1.413-4.343v2.146
			C45.211,19.449,45.055,22.194,45.234,23.267 M49.349,6.118c1.675-0.112,3.148,1.098,3.362,2.763l-1.933-0.967
			c-0.067-0.034-0.145-0.045-0.22-0.031l-4.102,0.724C46.746,7.218,47.932,6.198,49.349,6.118 M44.617,13.867v-4.93
			c0.001-1.094,0.834-2.007,1.923-2.109c-0.563,0.697-0.868,1.566-0.864,2.462v0.362c0,1.515,0.701,2.344,1.633,3.066
			C46.563,13.389,45.617,13.793,44.617,13.867 M46.383,9.652V9.337l4.184-0.738l2.17,1.085c-0.01,1.315-0.61,1.97-1.864,2.848
			c-0.789,0.548-1.835,0.548-2.623,0C46.984,11.647,46.383,10.99,46.383,9.652 M47.795,15.036c0.23-0.063,0.467-0.095,0.707-0.095
			c0.195,0,0.352-0.159,0.352-0.354v-1.03c0.463,0.123,0.95,0.123,1.413,0v1.03c0,0.195,0.158,0.354,0.353,0.354
			c0.239,0,0.476,0.032,0.707,0.095v0.565l-1.767,0.38l-1.765-0.38V15.036z M45.874,22.397c-0.022-1.057,0.069-2.112,0.272-3.148
			c0.092,0.064,0.191,0.117,0.295,0.157c0.357,0.949,0.371,1.992,0.043,2.951h-0.455C45.975,22.358,45.922,22.371,45.874,22.397
			 M47.089,24.476h-0.706v-1.413h0.706V24.476z M47.795,22.71c0-0.195-0.158-0.353-0.353-0.353H47.23
			c0.267-0.923,0.267-1.903,0-2.825h4.648c-0.332,1.034-0.326,2.147,0.017,3.178H47.795z M52.739,18.419
			c0,0.192-0.302,0.406-0.706,0.406h-4.944c-0.405,0-0.706-0.214-0.706-0.406v-3.047c0.229-0.094,0.464-0.172,0.706-0.23v0.746
			c0,0.166,0.116,0.31,0.279,0.345l2.119,0.456c0.049,0.01,0.099,0.01,0.148,0l2.119-0.456c0.163-0.035,0.279-0.179,0.279-0.345
			v-0.747c0.241,0.058,0.476,0.136,0.706,0.23V18.419z M57.125,16.894l-3.68,0.788V16h2.211c0.734,0.002,1.348-0.561,1.408-1.294
			l0.243-3.65h0.376v5.147C57.682,16.535,57.45,16.823,57.125,16.894 M59.802,12.116h-0.707v-1.413h0.707V12.116z"/>
	</g>
</g>
<g class="st17">
	<g>
		<path class="st18" d="M125.976,15.558c0.052,0.099,0.152,0.156,0.256,0.156c0.042,0,0.088-0.01,0.129-0.031
			c0.017-0.008,1.7-0.863,2.53-1.126c0.15-0.048,0.233-0.208,0.186-0.359c-0.048-0.15-0.207-0.233-0.359-0.186
			c-0.874,0.277-2.546,1.125-2.617,1.161C125.96,15.244,125.904,15.417,125.976,15.558"/>
		<path class="st18" d="M126.232,12.283c0.043,0,0.087-0.01,0.129-0.031c0.017-0.009,1.7-0.863,2.53-1.126
			c0.15-0.048,0.234-0.208,0.186-0.358c-0.047-0.151-0.207-0.235-0.359-0.187c-0.873,0.276-2.545,1.126-2.616,1.162
			c-0.141,0.072-0.198,0.243-0.126,0.384C126.027,12.226,126.127,12.283,126.232,12.283"/>
		<path class="st18" d="M133.093,11.712c-0.158,0-0.286,0.128-0.286,0.286v11.15c0,0.473-0.385,0.858-0.858,0.858h-6.862v-0.658
			c0.418-0.146,1.503-0.486,2.573-0.486c2.492,0,4.182,0.552,4.199,0.558c0.086,0.028,0.182,0.014,0.257-0.04
			c0.075-0.053,0.119-0.14,0.119-0.231v-12.58c0-0.133-0.093-0.25-0.224-0.279c0,0-0.224-0.05-0.607-0.121
			c-0.155-0.028-0.305,0.075-0.333,0.23c-0.028,0.155,0.074,0.304,0.23,0.333c0.145,0.027,0.268,0.051,0.362,0.069v11.968
			c-0.648-0.17-2.086-0.478-4.003-0.478c-1.245,0-2.468,0.409-2.848,0.548c-0.337-0.149-1.354-0.548-2.584-0.548
			c-1.968,0-3.592,0.325-4.288,0.489v-11.99c0.571-0.14,2.257-0.508,4.288-0.508c1.043,0,1.937,0.325,2.288,0.472v11.25
			c0,0.103,0.055,0.198,0.145,0.248c0.089,0.052,0.2,0.05,0.288-0.003c0.028-0.017,2.86-1.708,5.375-2.547
			c0.117-0.039,0.195-0.148,0.195-0.271V7.708c0-0.093-0.046-0.181-0.123-0.235c-0.077-0.053-0.175-0.065-0.264-0.033
			c-2.288,0.858-4.602,2.298-4.625,2.313c-0.134,0.084-0.175,0.26-0.091,0.394c0.084,0.133,0.26,0.175,0.394,0.091
			c0.021-0.013,2.034-1.266,4.137-2.112v11.1c-1.951,0.678-3.989,1.785-4.86,2.281v-10.94c0-0.108-0.062-0.207-0.158-0.256
			c-0.048-0.024-1.221-0.602-2.701-0.602c-2.583,0-4.57,0.559-4.653,0.583c-0.123,0.035-0.208,0.148-0.208,0.274v12.58
			c0,0.089,0.042,0.174,0.114,0.228c0.05,0.038,0.11,0.058,0.173,0.058c0.026,0,0.052-0.003,0.078-0.011
			c0.02-0.005,1.997-0.561,4.496-0.561c1.046,0,1.938,0.326,2.288,0.472v0.673h-6.861c-0.474,0-0.858-0.385-0.858-0.858v-11.15
			c0-0.158-0.128-0.286-0.286-0.286c-0.158,0-0.286,0.128-0.286,0.286v11.15c0,0.788,0.641,1.429,1.43,1.429h14.295
			c0.788,0,1.429-0.642,1.429-1.429v-11.15C133.379,11.839,133.251,11.712,133.093,11.712"/>
		<path class="st18" d="M125.976,13.842c0.052,0.099,0.152,0.156,0.256,0.156c0.042,0,0.088-0.009,0.129-0.031
			c0.017-0.008,1.7-0.863,2.53-1.125c0.15-0.048,0.233-0.209,0.186-0.359c-0.048-0.151-0.207-0.234-0.359-0.187
			c-0.874,0.277-2.546,1.125-2.617,1.162C125.96,13.529,125.904,13.701,125.976,13.842"/>
		<path class="st18" d="M125.976,17.273c0.052,0.098,0.152,0.156,0.256,0.156c0.042,0,0.088-0.01,0.129-0.032
			c0.017-0.007,1.7-0.863,2.53-1.125c0.15-0.048,0.233-0.208,0.186-0.359c-0.048-0.15-0.207-0.233-0.359-0.186
			c-0.874,0.277-2.546,1.125-2.617,1.161C125.96,16.96,125.904,17.133,125.976,17.273"/>
		<path class="st18" d="M123.152,12.728c-1.766-0.414-3.772,0.114-3.856,0.137c-0.153,0.041-0.243,0.197-0.203,0.35
			c0.034,0.128,0.15,0.212,0.276,0.212c0.024,0,0.05-0.003,0.074-0.01c0.019-0.005,1.951-0.513,3.578-0.132
			c0.152,0.036,0.308-0.059,0.344-0.213C123.401,12.919,123.305,12.765,123.152,12.728"/>
		<path class="st18" d="M123.152,14.444c-1.766-0.413-3.772,0.114-3.856,0.137c-0.153,0.041-0.243,0.197-0.203,0.35
			c0.034,0.128,0.15,0.212,0.276,0.212c0.024,0,0.05-0.003,0.074-0.01c0.019-0.005,1.951-0.513,3.578-0.132
			c0.152,0.036,0.308-0.059,0.344-0.213C123.401,14.635,123.305,14.48,123.152,14.444"/>
		<path class="st18" d="M125.976,18.989c0.052,0.098,0.152,0.156,0.256,0.156c0.042,0,0.088-0.01,0.129-0.032
			c0.017-0.008,1.7-0.863,2.53-1.125c0.15-0.048,0.233-0.208,0.186-0.359c-0.048-0.15-0.207-0.234-0.359-0.186
			c-0.874,0.276-2.546,1.125-2.617,1.161C125.96,18.676,125.904,18.847,125.976,18.989"/>
		<path class="st18" d="M123.152,16.159c-1.766-0.413-3.772,0.113-3.856,0.136c-0.153,0.042-0.243,0.198-0.203,0.351
			c0.034,0.128,0.15,0.212,0.276,0.212c0.024,0,0.05-0.003,0.074-0.01c0.019-0.006,1.951-0.513,3.578-0.132
			c0.152,0.036,0.308-0.059,0.344-0.213C123.401,16.349,123.305,16.195,123.152,16.159"/>
		<path class="st18" d="M123.152,19.59c-1.766-0.414-3.772,0.113-3.856,0.136c-0.153,0.041-0.243,0.198-0.203,0.35
			c0.034,0.128,0.15,0.213,0.276,0.213c0.024,0,0.05-0.003,0.074-0.01c0.019-0.006,1.951-0.513,3.578-0.132
			c0.152,0.035,0.308-0.059,0.344-0.213C123.401,19.78,123.305,19.626,123.152,19.59"/>
		<path class="st18" d="M123.152,17.875c-1.766-0.414-3.772,0.113-3.856,0.136c-0.153,0.041-0.243,0.198-0.203,0.35
			c0.034,0.128,0.15,0.213,0.276,0.213c0.024,0,0.05-0.003,0.074-0.01c0.019-0.006,1.951-0.513,3.578-0.132
			c0.152,0.036,0.308-0.059,0.344-0.213C123.401,18.065,123.305,17.911,123.152,17.875"/>
	</g>
</g>
<g class="st17">
	<g>
		<path class="st18" d="M95.472,17.481c0.189-0.019,0.333-0.178,0.333-0.368c0-0.205-0.165-0.37-0.37-0.37
			c-0.205,0-0.37,0.165-0.37,0.37C95.065,17.332,95.252,17.502,95.472,17.481"/>
		<path class="st18" d="M87.799,15.259c-0.205,0-0.37,0.165-0.37,0.37c0,0.192,0.142,0.35,0.333,0.369
			c0.22,0.022,0.407-0.149,0.407-0.369C88.169,15.425,88.004,15.259,87.799,15.259"/>
		<path class="st18" d="M92.617,18.595c0-2.657-2.161-4.819-4.818-4.819c-2.657,0-4.819,2.162-4.819,4.819
			c0,2.657,2.162,4.819,4.819,4.819C90.456,23.414,92.617,21.252,92.617,18.595 M87.799,22.672c-2.248,0-4.077-1.829-4.077-4.077
			c0-2.248,1.829-4.077,4.077-4.077c2.248,0,4.077,1.829,4.077,4.077C91.876,20.843,90.047,22.672,87.799,22.672"/>
		<path class="st18" d="M89.415,15.677c-0.18-0.1-0.405-0.035-0.504,0.144c-0.1,0.178-0.035,0.404,0.144,0.503
			c0.826,0.459,1.339,1.33,1.339,2.271c0,0.205,0.167,0.371,0.371,0.371c0.205,0,0.371-0.166,0.371-0.371
			C91.136,17.384,90.477,16.266,89.415,15.677"/>
		<path class="st18" d="M96.176,13.035h-0.37v-1.111c0-0.205-0.166-0.371-0.371-0.371h-1.483c-0.205,0-0.371,0.166-0.371,0.371
			v1.111h-2.816c-0.356-0.189-0.729-0.345-1.112-0.463v-1.019h1.111c0.613,0,1.112-0.499,1.112-1.113V8.217
			c0-0.614-0.499-1.113-1.112-1.113h-5.931c-0.613,0-1.111,0.499-1.111,1.113v2.223c0,0.614,0.498,1.113,1.111,1.113h1.113v1.019
			c-0.384,0.118-0.757,0.274-1.114,0.463h-2.816v-1.111c0-0.205-0.166-0.371-0.37-0.371h-1.483c-0.205,0-0.371,0.166-0.371,0.371
			v1.111h-0.371c-0.612,0-1.111,0.499-1.111,1.112v8.897c0,0.613,0.499,1.112,1.111,1.112h5.412
			c0.907,0.485,1.931,0.741,2.966,0.741s2.058-0.256,2.966-0.741h5.411c0.613,0,1.112-0.499,1.112-1.112v-8.897
			C97.288,13.534,96.789,13.035,96.176,13.035 M96.547,21.19h-3.005c0.366-0.81,0.559-1.696,0.559-2.594
			c0-0.899-0.193-1.785-0.559-2.595h3.005V21.19z M96.547,14.147v1.113h-3.401c-0.35-0.561-0.785-1.06-1.287-1.483h4.317
			C96.381,13.777,96.547,13.942,96.547,14.147 M94.322,12.294h0.742v0.741h-0.742V12.294z M84.463,10.44V8.217
			c0-0.204,0.166-0.371,0.37-0.371h5.931c0.205,0,0.371,0.167,0.371,0.371v2.223c0,0.205-0.166,0.371-0.371,0.371h-5.931
			C84.629,10.81,84.463,10.644,84.463,10.44 M88.911,11.552v0.84c-0.366-0.065-0.738-0.099-1.112-0.099s-0.747,0.034-1.112,0.099
			v-0.84H88.911z M80.533,12.294h0.741v0.741h-0.741V12.294z M79.421,13.773h4.317c-0.501,0.423-0.936,0.926-1.286,1.487h-3.401
			v-1.113C79.051,13.942,79.217,13.773,79.421,13.773 M79.051,15.997h3.004c-0.366,0.812-0.558,1.7-0.558,2.599
			c0,0.898,0.192,1.784,0.558,2.594h-3.004V15.997z M79.051,23.044v-1.112h3.401c0.35,0.56,0.785,1.059,1.286,1.483h-4.317
			C79.217,23.414,79.051,23.247,79.051,23.044 M82.238,18.596c0-3.057,2.476-5.561,5.561-5.561c3.071,0,5.56,2.49,5.56,5.561
			c0,3.08-2.498,5.56-5.56,5.56C84.726,24.156,82.238,21.663,82.238,18.596 M96.176,23.414h-4.317
			c0.502-0.424,0.937-0.923,1.287-1.483h3.401v1.112C96.547,23.247,96.381,23.414,96.176,23.414"/>
		<path class="st18" d="M90.023,10.07c0.205,0,0.371-0.166,0.371-0.371V8.958c0-0.205-0.166-0.37-0.371-0.37
			c-0.204,0-0.37,0.165-0.37,0.37v0.741C89.653,9.904,89.819,10.07,90.023,10.07"/>
	</g>
</g>
</svg>
