<?xml version="1.0" encoding="utf-8"?>
<!-- Generator: Adobe Illustrator 24.2.1, SVG Export Plug-In . SVG Version: 6.00 Build 0)  -->
<svg version="1.1" id="Capa_1" xmlns="http://www.w3.org/2000/svg" xmlns:xlink="http://www.w3.org/1999/xlink" x="0px" y="0px"
	 viewBox="0 0 30 30" style="enable-background:new 0 0 30 30;" xml:space="preserve">
<style type="text/css">
	.st0{opacity:0.6;}
	.st1{clip-path:url(#SVGID_2_);fill:none;stroke:#23334B;stroke-width:0.75;stroke-miterlimit:10;}
	.st2{clip-path:url(#SVGID_4_);fill:none;stroke:#23334B;stroke-width:0.75;stroke-miterlimit:10;}
	.st3{clip-path:url(#SVGID_6_);fill:none;stroke:#23334B;stroke-width:0.75;stroke-miterlimit:10;}
	.st4{clip-path:url(#SVGID_8_);fill:none;stroke:#23334B;stroke-width:0.75;stroke-miterlimit:10;}
	.st5{clip-path:url(#SVGID_10_);fill:#23334B;}
	.st6{clip-path:url(#SVGID_12_);fill:none;stroke:#23334B;stroke-width:0.75;stroke-miterlimit:10;}
	.st7{clip-path:url(#SVGID_14_);fill:#23334B;}
	.st8{clip-path:url(#SVGID_16_);fill:none;stroke:#23334B;stroke-width:0.75;stroke-miterlimit:10;}
	.st9{clip-path:url(#SVGID_18_);fill:#23334B;}
	.st10{clip-path:url(#SVGID_20_);fill:none;stroke:#23334B;stroke-width:0.75;stroke-miterlimit:10;}
	.st11{clip-path:url(#SVGID_22_);fill:#23334B;}
	.st12{clip-path:url(#SVGID_24_);fill:none;stroke:#23334B;stroke-width:0.75;stroke-miterlimit:10;}
	.st13{clip-path:url(#SVGID_26_);fill:#23334B;}
	.st14{clip-path:url(#SVGID_26_);fill:none;stroke:#23334B;stroke-width:0.25;stroke-miterlimit:10;}
	.st15{clip-path:url(#SVGID_28_);fill:none;stroke:#23334B;stroke-width:0.75;stroke-miterlimit:10;}
	.st16{clip-path:url(#SVGID_30_);fill:#23334B;}
	.st17{opacity:0.5;}
	.st18{fill:#23334B;}
	.st19{clip-path:url(#SVGID_32_);fill:none;stroke:#23334B;stroke-width:0.75;stroke-miterlimit:10;}
</style>
<g>
	<g class="st0">
		<g>
			<defs>
				<rect id="SVGID_7_" x="7.528" y="7.529" width="14.943" height="14.942"/>
			</defs>
			<clipPath id="SVGID_2_">
				<use xlink:href="#SVGID_7_"  style="overflow:visible;"/>
			</clipPath>
			<rect x="8.053" y="8.054" class="st1" width="13.892" height="13.894"/>
		</g>
	</g>
	<g class="st0">
		<g>
			<defs>
				<rect id="SVGID_9_" x="10.38" y="10.971" width="9.879" height="7.902"/>
			</defs>
			<clipPath id="SVGID_4_">
				<use xlink:href="#SVGID_9_"  style="overflow:visible;"/>
			</clipPath>
			<path style="clip-path:url(#SVGID_4_);fill:#23334B;" d="M17.828,17.657c-0.518,0-1.18-0.231-1.502-0.423l-0.309,1.247
				c0.423,0.231,1.078,0.392,1.812,0.392c1.603,0,2.432-0.769,2.432-1.816c-0.013-0.825-0.459-1.365-1.527-1.73
				c-0.685-0.242-0.902-0.379-0.902-0.643c0-0.287,0.239-0.459,0.664-0.459c0.482,0,0.96,0.185,1.215,0.322l0.309-1.204
				c-0.344-0.174-0.928-0.322-1.583-0.322c-1.389,0-2.282,0.792-2.282,1.835c-0.013,0.668,0.434,1.298,1.596,1.687
				c0.651,0.22,0.823,0.356,0.823,0.643C18.572,17.474,18.353,17.657,17.828,17.657"/>
			<path style="clip-path:url(#SVGID_4_);fill:#23334B;" d="M12.11,15.995c0.161,0.022,0.368,0.031,0.595,0.031
				c1.032,0,1.918-0.251,2.51-0.811c0.462-0.435,0.714-1.079,0.714-1.835c0-0.757-0.329-1.4-0.827-1.789
				c-0.514-0.416-1.282-0.62-2.362-0.62c-1.065,0-1.823,0.071-2.36,0.161v7.629h1.73V15.995z M12.113,12.359
				c0.122-0.035,0.365-0.07,0.718-0.07c0.874,0,1.365,0.423,1.369,1.133c0,0.792-0.577,1.263-1.506,1.263
				c-0.251,0-0.431-0.011-0.581-0.043V12.359z"/>
		</g>
	</g>
</g>
</svg>
