<?xml version="1.0" encoding="utf-8"?>
<!-- Generator: Adobe Illustrator 24.2.1, SVG Export Plug-In . SVG Version: 6.00 Build 0)  -->
<svg version="1.1" id="Capa_1" xmlns="http://www.w3.org/2000/svg" xmlns:xlink="http://www.w3.org/1999/xlink" x="0px" y="0px"
	 viewBox="0 0 30 30" style="enable-background:new 0 0 30 30;" xml:space="preserve">
<style type="text/css">
	.st0{opacity:0.6;}
	.st1{clip-path:url(#SVGID_2_);fill:none;stroke:#23334B;stroke-width:0.75;stroke-miterlimit:10;}
	.st2{clip-path:url(#SVGID_4_);fill:none;stroke:#23334B;stroke-width:0.75;stroke-miterlimit:10;}
	.st3{clip-path:url(#SVGID_6_);fill:none;stroke:#23334B;stroke-width:0.75;stroke-miterlimit:10;}
	.st4{clip-path:url(#SVGID_8_);fill:none;stroke:#23334B;stroke-width:0.75;stroke-miterlimit:10;}
	.st5{clip-path:url(#SVGID_10_);fill:#23334B;}
	.st6{clip-path:url(#SVGID_12_);fill:none;stroke:#23334B;stroke-width:0.75;stroke-miterlimit:10;}
	.st7{clip-path:url(#SVGID_14_);fill:#23334B;}
	.st8{clip-path:url(#SVGID_16_);fill:none;stroke:#23334B;stroke-width:0.75;stroke-miterlimit:10;}
	.st9{clip-path:url(#SVGID_18_);fill:#23334B;}
	.st10{clip-path:url(#SVGID_20_);fill:none;stroke:#23334B;stroke-width:0.75;stroke-miterlimit:10;}
	.st11{clip-path:url(#SVGID_22_);fill:#23334B;}
	.st12{clip-path:url(#SVGID_24_);fill:none;stroke:#23334B;stroke-width:0.75;stroke-miterlimit:10;}
	.st13{clip-path:url(#SVGID_26_);fill:#23334B;}
	.st14{clip-path:url(#SVGID_26_);fill:none;stroke:#23334B;stroke-width:0.25;stroke-miterlimit:10;}
	.st15{clip-path:url(#SVGID_28_);fill:none;stroke:#23334B;stroke-width:0.75;stroke-miterlimit:10;}
	.st16{clip-path:url(#SVGID_30_);fill:#23334B;}
	.st17{opacity:0.5;}
	.st18{fill:#23334B;}
	.st19{clip-path:url(#SVGID_32_);fill:none;stroke:#23334B;stroke-width:0.75;stroke-miterlimit:10;}
</style>
<g class="st0">
	<g>
		<defs>
			<rect id="SVGID_31_" x="7.009" y="7.009" width="15.982" height="15.981"/>
		</defs>
		<clipPath id="SVGID_2_">
			<use xlink:href="#SVGID_31_"  style="overflow:visible;"/>
		</clipPath>
		<path class="st1" d="M20.258,11.503v7.722c-0.183,0.182-0.34,0.417-0.559,0.536c-0.624,0.336-1.273,0.626-1.914,0.931
			c-0.584,0.279-0.749,0.246-1.232-0.195c-1.313-1.205-2.633-2.404-3.942-3.613c-0.181-0.167-0.304-0.2-0.51-0.031
			c-0.508,0.413-1.04,0.799-1.562,1.197c-0.318,0.239-0.498,0.231-0.798-0.039c-0.158-0.143-0.318-0.284-0.47-0.433
			c-0.263-0.255-0.265-0.501,0.003-0.756c0.27-0.256,0.55-0.503,0.825-0.755c0.259-0.238,0.515-0.477,0.83-0.77
			c-0.111-0.077-0.197-0.125-0.269-0.189c-0.454-0.41-0.907-0.822-1.355-1.239c-0.297-0.277-0.295-0.507,0-0.79
			c0.147-0.141,0.3-0.276,0.452-0.413c0.291-0.26,0.462-0.269,0.774-0.032c0.525,0.395,1.053,0.785,1.565,1.194
			c0.189,0.15,0.311,0.141,0.49-0.024c1.343-1.238,2.702-2.46,4.042-3.702c0.329-0.302,0.652-0.35,1.04-0.158
			c0.613,0.301,1.226,0.605,1.849,0.883C19.847,10.976,20.118,11.16,20.258,11.503z M14.104,15.343
			c1.135,0.858,2.223,1.681,3.363,2.544v-5.095C16.322,13.66,15.238,14.483,14.104,15.343z"/>
		<path class="st1" d="M19.675,22.466h-9.349c-1.534,0-2.792-1.256-2.792-2.792v-9.348c0-1.536,1.257-2.793,2.792-2.793h9.239
			c1.596,0,2.902,1.306,2.902,2.902v9.239C22.466,21.21,21.21,22.466,19.675,22.466z"/>
	</g>
</g>
</svg>
