<?xml version="1.0" encoding="utf-8"?>
<!-- Generator: Adobe Illustrator 24.2.1, SVG Export Plug-In . SVG Version: 6.00 Build 0)  -->
<svg version="1.1" id="Capa_1" xmlns="http://www.w3.org/2000/svg" xmlns:xlink="http://www.w3.org/1999/xlink" x="0px" y="0px"
	 viewBox="0 0 30 30" style="enable-background:new 0 0 30 30;" xml:space="preserve">
<style type="text/css">
	.st0{opacity:0.6;}
	.st1{clip-path:url(#SVGID_2_);fill:none;stroke:#23334B;stroke-width:0.75;stroke-miterlimit:10;}
	.st2{clip-path:url(#SVGID_4_);fill:none;stroke:#23334B;stroke-width:0.75;stroke-miterlimit:10;}
	.st3{clip-path:url(#SVGID_6_);fill:none;stroke:#23334B;stroke-width:0.75;stroke-miterlimit:10;}
	.st4{clip-path:url(#SVGID_8_);fill:none;stroke:#23334B;stroke-width:0.75;stroke-miterlimit:10;}
	.st5{clip-path:url(#SVGID_10_);fill:#23334B;}
	.st6{clip-path:url(#SVGID_12_);fill:none;stroke:#23334B;stroke-width:0.75;stroke-miterlimit:10;}
	.st7{clip-path:url(#SVGID_14_);fill:#23334B;}
	.st8{clip-path:url(#SVGID_16_);fill:none;stroke:#23334B;stroke-width:0.75;stroke-miterlimit:10;}
	.st9{clip-path:url(#SVGID_18_);fill:#23334B;}
	.st10{clip-path:url(#SVGID_20_);fill:none;stroke:#23334B;stroke-width:0.75;stroke-miterlimit:10;}
	.st11{clip-path:url(#SVGID_22_);fill:#23334B;}
	.st12{clip-path:url(#SVGID_24_);fill:none;stroke:#23334B;stroke-width:0.75;stroke-miterlimit:10;}
	.st13{clip-path:url(#SVGID_26_);fill:#23334B;}
	.st14{clip-path:url(#SVGID_26_);fill:none;stroke:#23334B;stroke-width:0.25;stroke-miterlimit:10;}
	.st15{clip-path:url(#SVGID_28_);fill:none;stroke:#23334B;stroke-width:0.75;stroke-miterlimit:10;}
	.st16{clip-path:url(#SVGID_30_);fill:#23334B;}
	.st17{opacity:0.5;}
	.st18{fill:#23334B;}
	.st19{clip-path:url(#SVGID_32_);fill:none;stroke:#23334B;stroke-width:0.75;stroke-miterlimit:10;}
</style>
<g>
	<g class="st0">
		<g>
			<defs>
				<rect id="SVGID_23_" x="7.528" y="7.529" width="14.943" height="14.942"/>
			</defs>
			<clipPath id="SVGID_2_">
				<use xlink:href="#SVGID_23_"  style="overflow:visible;"/>
			</clipPath>
			<rect x="8.053" y="8.052" class="st1" width="13.892" height="13.894"/>
		</g>
	</g>
	<g class="st0">
		<g>
			<defs>
				<rect id="SVGID_25_" x="9.853" y="10.809" width="10.301" height="8.376"/>
			</defs>
			<clipPath id="SVGID_4_">
				<use xlink:href="#SVGID_25_"  style="overflow:visible;"/>
			</clipPath>
			<path style="clip-path:url(#SVGID_4_);fill:#23334B;" d="M18.719,13.43v-2.446h1.259c0,0-0.004,0.869-0.004,0.995
				c0.003,2.113,0.008,4.225,0,6.338c-0.001,0.119-0.101,0.3-0.203,0.344c-0.756,0.339-1.548,0.455-2.358,0.238
				c-0.974-0.262-1.505-0.945-1.67-1.917c-0.197-1.155-0.017-2.206,0.937-2.999C17.248,13.511,17.925,13.376,18.719,13.43
				 M18.719,16.201c0-0.451-0.018-0.902,0.006-1.35c0.018-0.337-0.151-0.406-0.428-0.386c-0.605,0.042-1.023,0.34-1.231,0.913
				c-0.207,0.566-0.188,1.141,0.006,1.704c0.195,0.566,0.706,0.875,1.303,0.836c0.239-0.017,0.363-0.095,0.35-0.367
				C18.705,17.102,18.719,16.65,18.719,16.201"/>
			<path style="clip-path:url(#SVGID_4_);fill:none;stroke:#23334B;stroke-width:0.25;stroke-miterlimit:10;" d="M18.719,13.43
				v-2.446h1.259c0,0-0.004,0.869-0.004,0.995c0.003,2.113,0.008,4.225,0,6.338c-0.001,0.119-0.101,0.3-0.203,0.344
				c-0.756,0.339-1.548,0.455-2.358,0.238c-0.974-0.262-1.505-0.945-1.67-1.917c-0.197-1.155-0.017-2.206,0.937-2.999
				C17.248,13.511,17.925,13.376,18.719,13.43z M18.719,16.201c0-0.451-0.018-0.902,0.006-1.35c0.018-0.337-0.151-0.406-0.428-0.386
				c-0.605,0.042-1.023,0.34-1.231,0.913c-0.207,0.566-0.188,1.141,0.006,1.704c0.195,0.566,0.706,0.875,1.303,0.836
				c0.239-0.017,0.363-0.095,0.35-0.367C18.705,17.102,18.719,16.65,18.719,16.201z"/>
			<polygon style="clip-path:url(#SVGID_4_);fill:#23334B;" points="10.005,10.985 11.731,10.985 12.731,13.522 13.719,10.985 
				15.426,10.985 13.621,14.862 15.556,18.826 13.796,18.826 12.678,16.169 11.569,18.826 9.853,18.826 11.786,14.862 			"/>
		</g>
	</g>
</g>
</svg>
